<?xml version="1.0" standalone="no"?>
<!DOCTYPE svg PUBLIC "-//W3C//DTD SVG 1.1//EN" "http://www.w3.org/Graphics/SVG/1.1/DTD/svg11.dtd" >
<svg xmlns="http://www.w3.org/2000/svg">
<metadata></metadata>
<defs>
<font id="ming_imperiallove" horiz-adv-x="1013" >
<font-face units-per-em="2048" ascent="1638" descent="-410" />
<missing-glyph horiz-adv-x="577" />
<glyph horiz-adv-x="0" />
<glyph unicode="&#xd;" horiz-adv-x="577" />
<glyph unicode=" "  horiz-adv-x="577" />
<glyph unicode="&#x09;" horiz-adv-x="577" />
<glyph unicode="&#xa0;" horiz-adv-x="577" />
<glyph unicode="!" horiz-adv-x="1038" d="M-4 1108q201 82 403 129v59h-8q-45 -41 -94 -41h-27l-24 31q0 25 153 88v168q0 59 -32 158v39l16 20q88 0 156 -119l-11 -59v-10l113 69h59l97 -108v-19q-8 -43 -279 -149l-6 -109l317 60h11q66 0 145 -127q0 -80 -86 -80q-139 29 -258 29l-94 -19l8 -49l8 -186 q1 -486 -67 -486h-19q-68 98 -67 228l16 118v344l-16 21l-301 -158h-11q-102 29 -102 158zM342 125v39q0 68 61 112h17v-8l-6 -26v-4h6q49 53 88 53h4q59 0 111 -60v-16l-39 -123q16 -4 16 -26q0 -23 -108 -27l-7 4q-61 0 -61 -31q0 -8 -21 -14q-45 0 -61 127zM424 125 q72 10 72 80l-72 -45v-4l6 -4v-5l-6 -18v-4z" />
<glyph unicode="&#x22;" horiz-adv-x="671" d="M100 1292q-22 259 103 394l92 -21q61 -158 2 -393l-70 -123l-53 -23l-29 41zM379 1292q-22 259 103 394l92 -21q61 -158 2 -393l-70 -123l-53 -23l-29 41z" />
<glyph unicode="#" horiz-adv-x="1130" d="M16 834q0 20 181 122q66 35 65 123l8 172q0 66 -49 99v8q0 16 49 33q172 -53 172 -131v-33q0 -84 -41 -123v-25h25q51 0 90 -65q0 -33 -139 -131l-17 -49v-9h17q0 86 287 213v262q0 39 -58 91v24q4 17 41 33q172 -51 172 -164v-57q0 -47 -33 -82v-25l41 8 q123 -31 123 -106q0 -55 -155 -123l16 -74v-24l-49 -139l196 -74q180 -70 181 -205v-25q-8 -25 -49 -24q-23 0 -287 164l-25 -9l17 -385q-27 -109 -58 -114h-32q-254 209 -254 246v8l8 8v8l131 -33l8 -8h49l17 17v327h-9q-68 -100 -295 -155l-16 -17v-115l-8 -32 q25 -35 24 -205l-24 -25q-90 0 -123 254v82h-16q0 -25 -50 -65h-32q-74 25 -74 164v24q0 16 41 16l131 173l16 106l-8 8l-8 -8h-33q-164 29 -164 66zM336 481q104 72 172 140h-25l-139 -99h-8v-41zM352 596q96 98 221 98q57 92 58 131h-8l-123 25q-55 0 -90 -139 q-58 -90 -58 -115z" />
<glyph unicode="$" horiz-adv-x="968" d="M31 666v16q49 156 172 156h24q72 0 172 -33v33q-131 31 -131 49v8l8 41q-115 121 -114 156v24q63 98 131 98q35 0 106 -32v32l-16 17q10 139 90 139q66 0 74 -82l-8 -41h-33l-8 8l-9 -98v-8l82 -25l-8 50q55 74 99 73h8l16 -16v-25l-24 -106l24 -17l82 17h8l8 -8 q-31 -147 -122 -148v-33q61 -57 147 -57q43 0 74 25h24l8 -9q-27 -82 -57 -82v-57l8 -41q90 -76 90 -131v-8q0 -66 -49 -139q-201 123 -205 155h-16v-90q-25 -188 -57 -188h-8q-49 0 -50 164v155l-57 -49q-29 -451 -49 -450h-16q-43 0 -66 294v9q-33 0 -107 -41l-65 24 q-180 156 -180 271zM186 731q0 -150 107 -196h65l41 8l-24 32v107q0 26 -180 49h-9zM342 1059l41 -74h8v33l-41 41h-8zM489 961l74 -25h17q-1 20 -91 65v-40zM506 772l74 -16v8q0 12 -74 49v-41zM514 625h16v8l-16 16v-24zM678 723q0 -16 74 -33h8q0 29 -82 58v-25z" />
<glyph unicode="%" horiz-adv-x="1167" d="M26 176v25q233 287 349 514q166 307 274 688v49h-10l-11 -12h-8l-10 12v25q39 73 96 73h9q55 0 94 -98v-24q0 -119 -131 -367q-231 -547 -349 -713q-188 -209 -284 -209zM145 1003v39q0 68 61 113h17v-9l-6 -26v-4h6q49 53 88 53h4q59 0 111 -59v-17l-39 -123 q16 -4 16 -26q0 -23 -109 -27l-6 4q-61 0 -61 -31q0 -8 -21 -14q-45 0 -61 127zM227 1003q72 10 72 80l-72 -45v-4l6 -4v-4l-6 -19v-4zM539 445v81q0 141 133 234h37v-16l-14 -56v-8h14q106 111 190 111h11q129 0 239 -123v-35l-84 -256q35 -8 35 -55t-235 -56l-15 9 q-133 0 -133 -64q0 -18 -45 -31q-98 0 -133 265zM717 445q156 23 156 165l-156 -92v-10l15 -8v-8l-15 -39v-8z" />
<glyph unicode="&#x26;" horiz-adv-x="1406" d="M0 1063q0 160 395 448q111 55 140 60l67 -27h51l27 -39q-74 -4 -145.5 -100t-71.5 -174q-51 -274 135 -459q53 -53 334 -274l278 276h56l94 -168q-10 -16 -29 -39q-80 -18 -166 -73q-109 -70 -90 -119q129 -111 109 -234v-2q0 -29 -4 -45l-250 219q-14 -102 -185 -207 q-158 -96 -270 -96q-133 0 -233 76q-106 82 -107 213q0 86 53 207q61 139 131 164q-104 51 -204 164q-115 129 -115 229zM348 453q0 -57 60 -117q66 -68 143 -66l254 105q-170 119 -416 256l-37 -150q-4 -14 -4 -28zM631 836q0 18 57 59q70 49 76 55q88 86 84 164 q-2 49 -82 119q-39 33 -68 215q10 16 19.5 -14.5t25.5 -28.5h134l79 -19q74 6 152 -66.5t76 -148.5q-4 -129 -305 -266q-33 -31 -103 -69q-37 -6 -108 -21z" />
<glyph unicode="'" horiz-adv-x="401" d="M100 1292q-22 259 103 394l92 -21q61 -158 2 -393l-70 -123l-53 -23l-29 41z" />
<glyph unicode="(" horiz-adv-x="757" d="M80 1499q66 256 246 256l39 -35l-13 -67q-66 -74 -65 -137v-1553q205 0 338 137h26l13 -16q-104 -264 -428 -547q-129 23 -130 307q25 88 25 394v256q0 567 -51 1005z" />
<glyph unicode=")" horiz-adv-x="757" d="M80 84l12 16h27q133 -137 338 -137v1553q0 63 -66 137l-12 67l39 35q180 0 246 -256q-51 -438 -52 -1005v-256q0 -305 25 -394q0 -285 -129 -307q-324 283 -428 547z" />
<glyph unicode="*" horiz-adv-x="1024" d="M197 1212q0 25 75 68q39 10 109 18v19q0 23 -64 65l-6 19q0 16 23 35q16 0 86 -60l10 -2q14 25 14 58l-6 110q0 57 29 86h45q14 0 14 -59l-10 -146l2 -2h4q41 2 152 121q82 57 143 57v-2q0 -14 -158 -147q-49 -53 -55 -76l2 -2h15q53 0 294 58l37 6l2 -4q-16 -41 -71 -68 q-76 -29 -277 -61q-55 -23 -71 -35q35 -61 108 -84q57 -6 57 -13q0 -37 -67 -43q-61 0 -117 43v-34l19 -148v-31q0 -6 -9 -6q-76 29 -75 133v64l-5 43h-2q-29 0 -84 -57l-30 -7h-23l-10 9v12q0 14 49 49l4 14q-10 25 -33 25h-4q-8 0 -71 -31l-17 -2h-22q-6 0 -6 8z" />
<glyph unicode="+" horiz-adv-x="1144" d="M68 639q0 20 168 61q109 66 274 101q12 35 12 123v26l-12 15q-121 -143 -150 -144q-43 0 -71 191q4 53 119 211v12q-39 0 -72 123l6 6h37q137 0 340 102h18q39 0 101 -114v-21q0 -29 -185 -96l-12 -59h6q70 43 131 59h13q106 -35 106 -129q0 -80 -178 -236 q-59 -31 -60 -41h7l237 21h78q92 0 143 -158q-12 -27 -30 -26l-226 20h-55l-160 -6l-12 -21q-8 -223 -18 -223l6 -8q-18 -352 -54 -352h-6q-35 0 -53 577h-18l-209 -90q-76 -74 -119 -74q-102 94 -102 150zM379 1038h6l137 56l4 26l-4 76q-16 -2 -143 -158zM641 958 q125 154 125 203q-111 -41 -113 -61v-74z" />
<glyph unicode="," horiz-adv-x="358" d="M33 -125l76 148v65l-64 129v49l43 17q213 -35 213 -99v-114q0 -205 -268 -242v47z" />
<glyph unicode="-" horiz-adv-x="669" d="M16 436v84q0 29 56 29h479q55 0 55 -29v-84q0 -27 -55 -26h-481q-53 0 -54 26z" />
<glyph unicode="." horiz-adv-x="555" d="M125 129v39q0 68 61 113h17v-9l-6 -26v-4h6q49 53 88 53h4q59 0 111 -59v-17l-39 -123q16 -4 16 -26q0 -23 -109 -27l-6 4q-61 0 -61 -31q0 -8 -21 -14q-45 0 -61 127zM207 129q72 10 72 80l-72 -45v-4l6 -4v-4l-6 -19v-4z" />
<glyph unicode="/" horiz-adv-x="827" d="M16 137v25q233 287 349 514q166 307 274 688v49h-10l-11 -12h-8l-10 12v25q39 73 96 73h9q55 0 94 -98v-24q0 -119 -131 -367q-231 -547 -349 -713q-188 -209 -284 -209z" />
<glyph unicode="0" horiz-adv-x="1404" d="M61 838q0 233 123 368h25q25 0 24 -92q111 127 330 184l428 78q342 -125 342 -327q-98 -819 -209 -1000q-33 -53 -96 -53l-172 223q-281 0 -391 -131l-62 -12h-12q-244 84 -330 762zM305 745h12l197 93q49 0 49 26v119l-24 25q-4 -18 -209 -93l-25 -77v-93zM379 338h12 q172 49 172 223h-12q-70 -74 -160 -92l-12 -12l12 -15v-12l-12 -80v-12zM770 496l160 -93h24q25 0 50 263h-13l-73 -25h-87q-31 0 -36 -53l12 -15v-12zM770 903l111 39l123 -51h12v196l-25 27h-123q-61 0 -73 -53l12 -53l-37 -66v-39z" />
<glyph unicode="1" horiz-adv-x="710" d="M70 1112v21q96 154 424 315l53 -197q10 -182 24 -354l7 -139l-7 -193l-10 -499q0 -27 -53 -50q-104 61 -168 254q41 414 16 803l-22 21q0 -51 -148 -168h-20q-39 0 -96 186z" />
<glyph unicode="2" horiz-adv-x="1005" d="M0 786q0 45 205 162q0 23 76 74q264 324 264 432v19l-10 45l26 18h17q125 0 245 -145v-17q0 -90 -100 -127l-111 -82q197 0 273 -161q0 -84 -121 -199q-264 -360 -381 -408v-8h8q158 35 459 64l-43 153v8l16 19h11q109 0 253 -262l52 -135q0 -162 -95 -236h-24 q-20 0 -59 190l-35 72l-8 -8h-9l-51 8q-281 0 -534 -153q-35 -45 -78 -46q-78 0 -170 181l-8 45v45q0 119 110 119q98 61 256 243q188 219 211 316v18h-8l-25 -8l-43 8h-16q-47 0 -307 -299q-145 -125 -195 -125q-27 0 -51 180zM709 1280h4l35 16v4h-9q-20 0 -30 -20z" />
<glyph unicode="3" horiz-adv-x="1234" d="M16 741v27q74 90 373 229l311 273q-96 184 -96 229v27q57 80 166 80h59l27 -19q0 -47 -53 -78q102 -475 338 -776q70 0 69 -178l-26 -27h-25q-90 63 -201 230h-8l8 -318l11 -43q135 -66 164 -98v-16l-43 -19h-86l-27 19l-35 -133q-49 -150 -250 -150q-477 23 -477 88v88 q63 250 147 328h9v-72l8 -61l-8 -9q27 -98 43 -98q0 -88 233 -88h27q150 0 164 115v8l-9 10q-307 190 -354 353v34q0 100 113 142h16l8 -9q0 -215 209 -352h8v35l-69 264l10 27q0 27 111 106q-18 0 -43 35q-88 211 -129 211q-35 -27 -234 -299q-68 -141 -373 -141h-34 q-43 0 -52 26z" />
<glyph unicode="4" horiz-adv-x="778" d="M29 1135l12 12h10l68 -12q221 184 221 305h10q43 0 86 -25l35 -53l-14 -100l-99 -134q-57 -31 -129 -67v-12l33 -74l-67 -207h12q166 61 166 170l78 25l32 -62l88 37q76 0 166 -133q0 -74 -143 -74h-55l-23 -24q-18 -881 -88 -881h-22q-55 164 -56 831h-22l-56 -61 q-8 0 -16 -6l-176 -58l2 9l2 6v12h-2l-2 37h4v293q0 121 -55 246z" />
<glyph unicode="5" horiz-adv-x="1206" d="M14 246v16q0 31 97 31q72 53 327 96q256 383 273 514h-13q-137 -147 -315 -448l-53 -17q-84 0 -84 256v129l110 242q-137 -49 -137 63q-31 0 -41 146l27 31h69q66 0 465 145h54q82 0 137 -96v-64q-6 -61 -361 -168q-76 -170 -104 -170v-16h14l273 145q76 0 192 -178 q0 -139 -219 -434l-55 -47v-16l14 16h82l219 16q66 0 205 -225q-10 -129 -96 -129q-170 66 -369 66h-96q-180 0 -451 -146q-164 80 -164 242z" />
<glyph unicode="6" horiz-adv-x="684" d="M92 512q0 160 90 432l49 158q9 8 19 14l22 98q-57 84 -57 125l23 25h67q109 0 180 -162q-236 -393 -247 -493h22q6 59 158 174h57q92 -78 168 -224q-37 -545 -123 -544q-53 -86 -147 -86h-33q-63 23 -147 198q-61 0 -101 285zM283 362q0 -98 125 -110l22 74l-147 49v-13z M305 561l135 -24v147q-88 -109 -135 -111v-12z" />
<glyph unicode="7" horiz-adv-x="940" d="M76 1028q72 57 117 238v32l-33 97l10 12h23q190 -74 190 -240q152 82 201 131l30 314q0 82 -53 141v21q0 26 43 32q125 -35 211 -184v-152q0 -51 -31 -106q84 -37 84 -98q-6 -31 -94 -99l-63 -149h10q76 63 104 63l13 -32l-140 -238q-20 -76 -20 -334l20 -477l-10 -10 h-41l-213 227q0 20 -158 162l-63 -33q-84 31 -84 119v55q0 76 21 119l53 -10q338 180 338 270l10 96l-10 11h-11q-139 -195 -254 -195q-201 117 -200 217zM330 422q109 -76 180 -76l10 162v108q-86 -118 -190 -194z" />
<glyph unicode="8" horiz-adv-x="980" d="M27 383l321 121l-12 147v281q0 27 -98 37l-23 73q123 51 133 74v146l21 24h12q18 0 98 -121l133 62v121l-32 49l32 37h56q66 0 110 -74v-37l-22 -37v-24q90 -35 90 -97q-111 0 -111 -415l-35 -74v-12h35q72 0 121 -111h6l2 -37h-8q0 -61 -156 -86l-55 -72q104 0 133 -196 l-33 -49h-32q-47 29 -133 135h-11l-233 -268h-33q-78 78 -78 194l23 111h-23l-88 -62q-111 47 -110 160zM281 223l55 -12q197 160 266 160q0 33 -78 59q-244 -106 -243 -170v-37zM446 664h13l33 110h-13l-33 -37v-73zM446 895l89 25l55 -13v13l12 122q-152 -97 -156 -122 v-25zM479 578h13q78 29 77 49l-12 12h-10q0 -25 -68 -49v-12z" />
<glyph unicode="9" d="M0 692q248 84 248 262l-55 199q0 100 260 201q143 82 215 198h10q182 -98 182 -211q-61 -68 -182 -75v-25q68 -80 67 -125l-67 -162h12l135 50h23q104 0 192 -138v-49q-18 -49 -79 -49h-68l-55 12l-70 -12h-68l-10 -63v-199l23 -449q-39 -162 -80 -161h-33 q-281 193 -305 286l10 13h12l191 -25l35 25l-13 536h-22q-315 -213 -406 -213q-102 55 -102 174zM340 1165q63 -100 78 -211l-33 -88l145 52v274l-10 12v13l-180 -37v-15z" />
<glyph unicode=":" horiz-adv-x="499" d="M82 786v39q0 68 61 113h17v-8l-6 -27v-4h6q49 53 88 53h4q59 0 110 -59v-16l-38 -123q16 -4 16 -27t-109 -27l-6 5q-61 0 -61 -31q0 -8 -21 -15q-45 0 -61 127zM100 145v39q0 68 62 113h16v-8l-6 -27v-4h6q49 53 88 53h4q59 0 111 -59v-16l-39 -123q16 -4 16 -27 t-108 -27l-6 4q-61 0 -62 -30q0 -8 -20 -15q-45 0 -62 127zM164 786q72 10 72 80l-72 -45v-4l6 -4v-4l-6 -18v-5zM182 145q72 10 72 80l-72 -45v-4l6 -4v-4l-6 -18v-5z" />
<glyph unicode=";" horiz-adv-x="471" d="M33 -12v47l76 148v65l-64 129v49l43 17q213 -35 213 -99v-114q0 -205 -268 -242zM33 758v39q0 68 61 113h17v-9l-6 -26v-4h6q49 53 88 53h4q59 0 111 -59v-17l-39 -123q16 -4 16 -26q0 -23 -109 -27l-6 4q-61 0 -61 -31q0 -8 -21 -14q-45 0 -61 127zM115 758q72 10 72 80 l-72 -45v-4l6 -4v-4l-6 -19v-4z" />
<glyph unicode="&#x3c;" d="M158 801q641 358 725 280v-20l-9 -14q-410 -250 -432 -322l-8 -14l184 -131l119 -52l90 -45l74 -69q-41 -170 -141 -172l-135 90l-15 28l-47 9l-358 295l-15 14q-53 49 -32 123z" />
<glyph unicode="=" horiz-adv-x="1236" d="M127 891v12q0 35 327 139q201 47 310 47h122l41 -12l41 12q94 0 144 -129q-18 -82 -92 -81h-41l-164 12l-82 -23l-10 11v12l81 94h-10q-408 -143 -452 -188q0 -23 -72 -23q-96 0 -143 117zM144 531v12q0 35 327 139q201 47 310 47h122l41 -12l41 12q94 0 144 -129 q-18 -82 -92 -81h-41l-164 12l-82 -23l-10 11v12l81 94h-10q-408 -143 -452 -188q0 -23 -72 -23q-96 0 -143 117z" />
<glyph unicode="&#x3e;" d="M174 359q41 -170 141 -172l135 90l15 28l47 9l358 295l15 14q53 49 32 123q-641 358 -725 280v-20l9 -14q410 -250 432 -322l8 -14l-184 -131l-119 -52l-90 -45z" />
<glyph unicode="?" horiz-adv-x="913" d="M80 1266q397 256 422 340l112 137q211 -51 211 -359l-77 -614l-183 -84q-201 -31 -217 -86l84 -72l-12 -30h-17q-197 39 -206 149q0 115 192 187l156 43l16 18l17 70l45 452h-17l-405 -274q-12 -86 -49 -86q-72 119 -72 209zM233 188v54q0 88 82 149h21v-12l-8 -35v-6h8 q66 72 117 72h6q78 0 145 -80v-21l-51 -164q20 -6 20 -34q0 -31 -143 -35l-8 4q-80 0 -80 -41q0 -10 -27 -19q-59 0 -82 168zM342 188q94 14 94 107l-94 -59v-7l8 -4v-6l-8 -24v-7z" />
<glyph unicode="@" horiz-adv-x="1875" d="M-10 571v15q25 23 67 22l420 137q14 43 15 191q0 166 -46 266l-8 60l8 8h9q14 -14 67 -15q96 -53 96 -137l-6 -39h6q72 70 113 70h37q84 0 84 -92q0 -145 -129 -258v-8l76 8h75q0 393 29 510l-14 14q-63 -18 -172 -84q-29 -14 -82 -14h-23l-45 37q170 190 240 190h51 q150 0 203 -168l8 -22q-45 -131 -61 -289h-7l7 -37l-15 -62l8 -8l-8 -37v-22l8 6h232q82 0 135 -151q0 -23 -31 -23l-313 31q-25 -8 -31 -31l15 -137l-7 -23l15 -37l14 -387v-16q0 -59 -37 -76q-375 315 -375 410l9 8h8q217 -121 246 -121h8v14h8l-8 93v135l-15 84v84 q-293 -39 -292 -84v-8l8 -37l-17 -68l9 -31l-15 -30l6 -9q-49 -248 -163 -364l-23 -14h-22q-31 0 -31 90v8q0 98 22 98l31 -8q74 195 74 381l-240 -115l-67 -53h-23q-55 0 -141 145zM25 555v43q0 422 223 766q125 162 192 178q264 105 516 105h41q401 0 684 -234 q178 -172 179 -391l-129 74v14q0 219 -224 350q-176 88 -434 88q-356 0 -633 -139q-164 -92 -256 -377q-61 -203 -61 -409q0 -455 246 -744q182 -180 403 -180h21q297 0 743 254l6 -10v-6q0 -100 -373 -261q-223 -86 -376 -86h-37q-367 0 -588 367q-143 276 -143 598z M573 768h39q68 94 68 160l-8 22q-90 -12 -90 -67l8 -9v-14l-17 -84v-8z" />
<glyph unicode="A" horiz-adv-x="1454" d="M-10 571v15q24 22 64 22h3l420 137q14 43 15 191q0 166 -46 266l-8 60l8 8h9q14 -14 67 -15q96 -53 96 -137l-6 -39h6q72 70 113 70h37q84 0 84 -92q0 -145 -129 -258v-8l76 8h75q0 393 29 510l-14 14q-63 -18 -172 -84q-29 -14 -82 -14h-23l-45 37q170 190 240 190h51 q150 0 203 -168l8 -22q-45 -131 -61 -289h-7l7 -37l-15 -62l8 -8l-8 -37v-22l8 6h232q82 0 135 -151q0 -23 -31 -23l-313 31q-25 -8 -31 -31l15 -137l-7 -23l15 -37l14 -387v-16q0 -59 -37 -76q-375 315 -375 410l9 8h8q217 -121 246 -121h8v14h8l-8 93v135l-15 84v84 q-293 -39 -292 -84v-8l8 -37l-17 -68l9 -31l-15 -30l6 -9q-49 -248 -163 -364l-23 -14h-22q-31 0 -31 90v8q0 98 22 98l31 -8q74 195 74 381l-240 -115l-67 -53h-23q-55 0 -141 145zM573 768h39q68 94 68 160l-8 22q-90 -12 -90 -67l8 -9v-14l-17 -84v-8z" />
<glyph unicode="B" horiz-adv-x="1167" d="M0 139v49l147 66l115 98v25h-24q-66 0 -99 98v17q0 31 336 106l74 8h65q33 0 66 -106v-8q0 -12 -164 -107q-33 -31 -213 -98v-8q153 32 287 32h8q0 25 123 25q90 156 147 401l9 33q-268 0 -754 -180h-8q-33 14 -33 57v17q0 163 122 163h1l229 58v8q-86 51 -115 156v8 l17 16l65 -24h41q41 0 41 204q0 88 -49 303l25 33h8q94 0 221 -147v-49l-24 -50l98 17q211 0 287 -172v-17q-125 -184 -295 -245v-17h41q217 0 327 -229v-8q-203 -352 -229 -353v-16q90 -102 90 -131q-6 -66 -65 -66h-50q-80 25 -180 25h-41q-221 0 -491 -131h-9 q-147 59 -147 139zM66 1016v49q0 119 90 205q29 -12 49 -90l-8 -25q16 0 16 -25h8q139 94 213 99l8 -8v-33l-155 -123q-51 -80 -99 -197l-49 -16q-74 98 -73 164zM606 950q162 133 213 303l-82 -8h-57q-25 0 -41 -205q-10 0 -16 -57l-17 -16v-17z" />
<glyph unicode="C" horiz-adv-x="880" d="M33 352l82 666q-82 143 -82 272q0 119 145 119l-16 -102q131 -182 131 -256q293 35 309 90l-176 67l12 31h17q336 -12 346 -123q0 -115 -305 -239l-183 -17l-16 -18l-16 -70l-45 -453h16l405 275q12 86 50 86q72 -119 71 -209q-397 -256 -422 -340l-112 -137 q-211 51 -211 358z" />
<glyph unicode="D" horiz-adv-x="1189" d="M78 70l201 401q229 553 229 686h-14l-201 -43l-29 43q178 244 389 244q0 43 215 43q152 -49 273 -215q-57 -399 -230 -944q-145 -219 -258 -230q-39 25 -188 330l-14 14h-15q-178 -358 -315 -358h-15zM522 614q68 -152 146 -229h14q92 74 250 680l-21 178 q-176 0 -258 -301z" />
<glyph unicode="E" horiz-adv-x="1234" d="M16 555q0 178 70 178q236 301 338 776q-53 31 -53 78l26 19h60q109 0 166 -80v-27q0 -45 -97 -229l312 -273q299 -139 372 -229v-27q-8 -27 -51 -26h-35q-305 0 -372 141q-199 272 -234 299q-41 0 -129 -211q-25 -35 -43 -35q111 -80 111 -106l10 -27l-70 -264v-35h9 q209 137 208 352l9 9h16q113 -41 113 -142v-34q-47 -162 -355 -353l-8 -10v-8q14 -115 164 -115h27q233 0 233 88q16 0 43 98l-8 9l8 61v72h8q84 -78 148 -328v-88q0 -66 -477 -88q-201 0 -250 150l-35 133l-27 -19h-86l-43 19v16q29 33 164 98l10 43l8 318h-8 q-111 -166 -200 -230h-25z" />
<glyph unicode="F" horiz-adv-x="1171" d="M0 1065q0 27 109 43q82 63 335 121v45l-8 76l-41 131v10q6 22 51 45q166 -31 166 -98l21 -23v-55h10l-10 -86v-12l323 55q135 0 189 -164q-20 -68 -78 -68h-90l-186 45l-129 -32v-111l-11 -10v-12l11 -11l49 11h98l41 12q72 0 145 -156v-33l-39 -43h-38q-104 0 -226 89 l-30 -13l-9 -647q0 -166 -88 -166q-72 0 -119 199q37 438 37 758q-6 100 -30 100q-242 -166 -316 -166q-137 63 -137 166z" />
<glyph unicode="G" horiz-adv-x="1402" d="M2 252q102 0 238 319q-47 0 -58 58q106 16 107 73l90 222h-8q-43 -41 -74 -41q-188 104 -188 204l16 17l49 -17h33q37 0 549 205l41 8q139 -53 139 -122v-9q0 -35 -295 -106q-61 -23 -156 -197l-24 -24v-17h24q115 66 246 115q82 -61 82 -164q-74 -285 -74 -360v-74 q23 -213 181 -213q37 -25 147 -33l66 8v9q0 104 -140 344l8 8h17q160 -139 295 -320q31 0 65 -49v-41q-37 -106 -237 -106q-373 0 -467 172q-41 63 -66 147h-8q-281 -158 -393 -237q-156 0 -205 221zM223 293h17q242 106 352 106h8l49 320l-82 -25q-59 0 -106 99 q-16 0 -17 -41l-49 -99v-8q100 0 180 -156q-18 -49 -57 -49l-147 33h-9q-16 -4 -81 -131q-57 -35 -58 -49z" />
<glyph unicode="H" horiz-adv-x="1169" d="M51 459v24q0 16 41 17l131 172l17 106q32 216 32 307v5l9 172q0 66 -50 98v8q0 16 50 33q172 -53 172 -131v-33q0 -84 -41 -123v-24l-25 -197l-16 -49v-8h16q0 86 287 213v262q0 39 -58 90v24q4 17 41 33q172 -51 172 -164v-57q0 -47 -32 -82v-25q-4 -52 -5 -96 q0 -74 13 -125l16 -73v-25l-49 -139l197 -74q180 -70 180 -205v-24q-8 -25 -49 -25q-23 0 -287 164l-25 -8l17 -385q-27 -109 -57 -115h-33q-254 209 -254 246v8l8 8v8l131 -32l8 -9h49l17 17v327h-8q-68 -100 -295 -155l-17 -17v-114l-8 -33q25 -35 25 -205l-25 -24 q-90 0 -123 254v81h-16q0 -25 -49 -65h-33q-74 25 -74 164zM346 492q104 72 172 139h-24l-140 -99h-8v-40zM362 606q96 98 222 99q57 92 57 131h-8l-123 24q-55 0 -90 -139q-58 -90 -58 -115z" />
<glyph unicode="I" horiz-adv-x="1171" d="M-18 168q260 82 364 82v12q-35 168 -41 234q-47 -68 -100 -68q-61 0 -62 162q12 178 62 178q12 -70 51 -70q86 0 106 365h-12l-63 -14q-104 123 -113 217l12 14l64 -14h24l478 123h12q35 0 125 -123q0 -53 -162 -95l12 -55l-6 -158l12 -69l-38 -150v-26q78 74 114 190 l-39 41l39 41h13q86 0 149 -164q-35 -131 -262 -352l-51 -82l-11 -96l314 26q57 0 164 -163v-13q-36 -69 -75 -69h-1l-313 55h-89q-205 0 -555 -80h-12h-4q-107 0 -106 121zM457 510q125 0 125 217v82h-13q0 -41 -100 -178v-13l12 -14v-14zM457 821l125 41l-7 254l-24 29 q0 -33 -64 -41l7 -174q0 -45 -37 -94v-15zM459 276l12 15h76l10 137q-88 -32 -88 -55z" />
<glyph unicode="J" horiz-adv-x="1144" d="M41 801q319 309 319 549v12l-24 35v24l24 23h68q186 0 254 -117q0 -51 -201 -223v-10q297 129 348 129h68q129 0 279 -211v-25q-39 -72 -107 -119q-58 -32 -154 -55l-63 27q96 65 96 166q0 35 -12 75h-14q-223 -129 -267 -129v-24q53 -41 54 -115h4l8 -315l14 -248 l-14 -10v-13l14 -47v-12q0 -172 -121 -221q-106 59 -317 293l-129 227l139 -113v-10q160 -82 201 -82h14v47l13 201v86l12 6l-12 10v25q-4 236 -54 235q-117 0 -280 -235l-54 -25q-70 0 -106 189z" />
<glyph unicode="K" horiz-adv-x="1253" d="M31 23v24q0 168 78 211q150 176 213 422l-33 -25h-35q-190 76 -191 236l13 12h10l68 -24q313 61 313 174l55 223q0 35 -67 113v24l34 37h56q145 0 178 -137q0 -45 -88 -223h10l180 63q78 0 146 -100v-49q0 -55 -393 -150v-25h22q180 -33 180 -174q-168 -326 -168 -422 q10 -49 191 -61q256 0 256 174v123l22 25q117 -123 168 -383q0 -125 -291 -125h-268q-213 45 -213 223l80 522v12l-22 25q-106 -406 -404 -758l-55 -24zM813 1214q0 29 78 37v49q-45 0 -66 52l33 37h10q258 0 258 -224q-18 -63 -67 -63q-246 78 -246 112z" />
<glyph unicode="L" horiz-adv-x="616" d="M23 854v47l20 35q37 -117 150 -117q86 -137 86 -178l-43 -129v-16q96 -176 96 -260v-48l-33 -65v-17q123 0 557 -131l256 19q176 -18 193 -100v-33q0 -66 -289 -178l-672 241h-160q-86 0 -118 199l12 14h94l43 164q-68 0 -96 277v47q-96 31 -96 229zM86 1391v47 q268 -37 268 -242v-115q0 -63 -213 -98l-43 16v50l64 129v65z" />
<glyph unicode="M" horiz-adv-x="1431" d="M0 926v8l16 16q78 0 148 -139h16q131 303 213 303h25q57 -39 90 -131l-8 -41v-65q47 59 82 163h24l17 -41q-164 -461 -213 -532l-66 -16q-49 18 -49 81v50l57 262v41q-68 -106 -123 -320l-8 -57l8 -41h-8l17 -66v-24l-33 -33h-17q-156 117 -155 246v98l8 49 q-8 86 -41 189zM590 582v73q23 123 49 123h16l25 -57l-16 -16v-25h8q90 16 393 303l33 -33v-16q-70 -121 -221 -295q-143 -227 -205 -279h-17q-20 0 -41 91q-23 35 -24 131zM614 1114l205 74q236 131 402 131q94 0 204 -205v-8q-100 -778 -188 -1008q-61 -88 -98 -98 q-209 113 -320 319l-24 66l24 8q158 -115 254 -123q53 0 139 664l9 172l8 33l-8 8h-9q-80 0 -319 -156l-74 -24h-16q-188 45 -189 147z" />
<glyph unicode="N" horiz-adv-x="1312" d="M47 952l12 58l13 6q49 0 110 123q-2 -2 -6 -4l82 161v27l8 35l-18 106l28 9q82 0 175 -132v-18q0 -31 -37 -70q23 -27 121 -53l28 -26h19q25 78 166 202q14 43 65 43h18q14 0 130 -131l-103 -534v-62l-8 -10l8 -8l-18 -105v-80l-9 -34q27 -166 166 -166h37v26 q-29 145 -92 316l8 8h19q137 -156 260 -350q74 -51 74 -107q0 -112 -264 -112h-5q-174 0 -278 131q-92 164 -92 323l47 572h-19q-74 -18 -74 -123q-92 -147 -92 -492l-65 -192q-141 -238 -221 -238h-19q-29 8 -28 53v9q0 176 55 176q94 0 176 649v166l-29 61h-8 q-20 -78 -158 -176h-18v-8l33 -31z" />
<glyph unicode="O" horiz-adv-x="1112" d="M35 489q0 168 147 746l11 12h12q113 -129 112 -233l-102 -195h23q250 88 249 133l11 62v61l-56 -12l-12 12v12l23 87l-68 -25h-10l-45 49q147 232 305 232h90q315 -100 315 -515l13 -243q0 -659 -305 -660q-139 20 -283 86l-68 -24q-328 78 -327 243q-23 0 -35 172z M147 477q0 -123 136 -209v13q-100 156 -101 208h23l135 -135q18 0 80 160q-68 14 -68 35v12q0 23 101 62l12 110q-103 -74 -158 -74l-102 25q-35 -43 -58 -207zM430 305l23 -24h12l33 24h22v-24l-10 -13v-12q57 -37 113 -37h67q160 25 160 135v13q-51 0 -260 122 q-37 -6 -92 -122l-68 -50v-12zM545 1186h33q80 0 79 -86v-49q147 -57 148 -158q0 -49 -170 -86l-45 -172q129 0 270 -74h12v367q-25 342 -102 342h-22l-203 -60v-24z" />
<glyph unicode="P" horiz-adv-x="958" d="M-10 53l104 172q147 322 148 410h-11l-57 -21q-80 0 -80 107v12q0 57 56 86h12l35 -22q125 33 125 118v23l-91 -23q-150 0 -149 99l240 86v10q-35 0 -35 20v13l69 86l-102 -23l-104 43l2 15q159 170 409 170q61 43 105 43q139 -31 262 -172v-23q0 -88 -35 -139 q35 -12 35 -66v-10q-20 -43 -137 -86l-68 -66v-10q80 0 170 -119v-22l-45 -43h-172q-252 0 -252 -119q-86 -328 -297 -528q-66 -53 -115 -54q-23 0 -22 33zM414 1229q68 0 90 -76q76 33 162 33h22l10 53v23h-10l-274 -23v-10zM481 895h35q61 47 92 119h-12q-84 -46 -115 -99 v-20z" />
<glyph unicode="Q" horiz-adv-x="1107" d="M-20 37q184 90 296 227v17q-70 0 -94 135v698q0 90 64 90q94 -37 94 -135h14q0 59 95 59q219 -43 219 -180q-31 -303 -78 -350l125 -90l14 59l-14 17v712q-211 -106 -375 -106l-64 45q242 211 408 213h31q176 0 233 -272v-471q0 -301 -108 -396q250 -125 250 -303v-59 l-64 -62q-406 317 -405 410l77 31l-108 120q-188 -499 -532 -499h-1q-78 25 -77 90zM324 356h16q92 195 92 592q-14 90 -47 90h-14l-47 -667v-15z" />
<glyph unicode="R" horiz-adv-x="1320" d="M-25 -27q217 158 365 861l-10 84q41 0 76 333q-66 6 -66 47q0 53 111 84l98 -49q205 97 254 97h35q74 0 163 -119v-37q0 -92 -108 -166v-37q57 0 76 -106v-13l-33 -34h-111q-365 -43 -364 -228q-172 -764 -420 -764q-66 12 -66 35v12zM461 428v10q0 33 78 49v238 q-33 0 -33 37q0 31 55 59q131 -20 131 -168v-10q123 109 123 213h10q94 0 176 -94v-60q-39 -66 -342 -264l-20 -153v-13q135 -59 219 -59q309 31 309 190q23 0 45 179h11q77 -89 77 -432v-9q0 -51 -364 -108h-121q-287 0 -287 299v71q-68 0 -67 25zM506 1012h10 q231 55 232 143q35 27 34 84v23q-61 -59 -221 -119z" />
<glyph unicode="S" horiz-adv-x="944" d="M41 432q16 18 266 84q0 23 164 41h78q94 -16 94 -84v-24q0 -43 -336 -119q-61 -33 -110 -33h-9q-147 53 -147 135zM205 895l8 102l-16 136l8 8h51q104 -8 104 -94v-93q0 -66 -53 -168h10l154 33q-68 145 -68 211l9 8h8q51 -43 51 -67h27q86 158 86 246v16l-9 8v8 q0 -33 -319 -75q-68 8 -68 67q387 203 412 203q123 0 191 -127l8 -51q0 -47 -129 -363l-52 -41v-18h68q104 0 225 -160l9 -51q-199 -666 -422 -666q-102 0 -242 279l8 8h35q82 -59 172 -76h18q109 55 173 244l34 170v100l-10 8v11q-354 -51 -455 -144h-43q-77 10 -77 74.5 t94 253.5z" />
<glyph unicode="T" horiz-adv-x="765" d="M-12 934v16q0 39 123 140q268 156 323 247v41v84l33 17q211 0 262 -90l16 -41q0 -41 -90 -123l-356 -193q66 -135 78 -278l4 -117l-4 -162l-8 -418q0 -23 -41 -41q-82 51 -131 213q16 163 16 402q0 124 -4 270l-16 17q0 -43 -115 -140h-17q-29 0 -73 156z" />
<glyph unicode="U" horiz-adv-x="1275" d="M43 170q31 16 123 35q57 33 221 57q-57 92 -57 189h-17q-68 -82 -114 -82q-82 0 -82 155q0 68 49 189h16l33 -33l-8 -49h8q131 20 131 131q45 319 123 319l8 9l25 -50l-17 -73v-107l-24 -98h8l147 65h25l16 -16v-16q-180 -158 -180 -189v-33l8 -41h-8l8 -24l-8 -74h8 q213 76 213 115l17 491l-8 115h-9l-49 -8q-16 33 -16 90v8q35 82 90 82h8q90 0 131 -147v-369l-16 -90v-16q33 0 139 188v25q-41 0 -41 16v16q20 41 74 41q59 0 139 -139v-8q0 -102 -303 -393q0 -109 -41 -148l16 -16h41q260 -61 332 -170l23 -45q7 -17 7 -32q0 -31 -28 -52 q-178 127 -456 127h-74q-389 0 -492 -142q-109 90 -139 197zM485 279l156 16h74l-8 98q-57 -41 -205 -41q-1 -39 -17 -57v-16z" />
<glyph unicode="V" horiz-adv-x="1497" d="M0 1135v22q16 47 74 47h43q362 0 432 -164q43 -37 233 -446q63 -47 97 -47h10q51 233 166 397q-115 84 -148 154q53 272 97 391v22h-11q-254 -188 -254 -471l-10 -12h-22q-88 0 -158 201q0 160 401 483q43 12 43 47l178 37l127 10h31l53 -57q-35 -45 -211 -131l-10 -59 l-10 -414h31q86 217 243 307h11l30 -35v-47q0 -201 -84 -201q-268 -385 -411 -1015q63 -80 63 -129l-30 -25h-107q-100 0 -180 119v10q0 90 71 190q-375 584 -544 615q-164 90 -244 201z" />
<glyph unicode="W" horiz-adv-x="1423" d="M88 1300q0 84 139 115l82 8q246 0 336 -426v-32h17q18 196 154 196h1l17 17v82q0 369 73 368h8q57 -98 66 -221l-8 -360v-156q14 0 57 131q53 74 107 74q43 221 131 221h8q82 -78 82 -254v-33h-17q-16 0 -24 57h-8q-25 0 -25 -90l8 -327q0 -115 -82 -336h-8q-25 0 -24 33 h-17q-29 -76 -221 -197q-197 -51 -295 -180l-57 -17q-197 113 -197 238q123 354 123 565v66q0 276 -74 327l-114 33l-33 -16v-49q0 -76 106 -336v-17h-8q-104 123 -205 344q-31 88 -98 172zM588 203h8q23 0 238 114q214 115 245 115v8h-41l-213 -82h-65q-47 35 -66 74v33 q106 98 107 172l16 16v9h-8l-25 -9v9l-57 -17q-74 18 -74 66h-8q-6 -180 -24 -181l8 -8v-8q-6 -66 -17 -65l9 -25q-16 0 -33 -221zM776 850l8 -57q31 0 50 196l8 8v17h-17q-37 0 -49 -164zM989 604q0 -74 49 -74q66 -20 66 -81l16 16l-16 57l57 361v8q-111 -100 -172 -287z " />
<glyph unicode="X" horiz-adv-x="1523" d="M29 82v10q0 31 344 121q139 51 297 236v20q-229 236 -461 236l-19 30v21q0 33 119 41h109q150 0 342 -164q45 94 45 325v11q0 39 -45 92v10q0 29 45 31v10q-61 0 -62 21q154 156 154 215h-10q-180 -27 -180 -134l-9 -40l9 -31q-25 -82 -45 -82h-19q-74 0 -108 133 q-131 -102 -207 -102h-11q-109 96 -108 245l27 21h108q190 33 191 51v21q0 53 -82 202v31l28 20h17q227 -25 227 -215v-18l-10 -10v-10h10q244 49 244 120l18 123l-10 10l-8 -10h-19l-26 31q24 82 90 82h8q154 -55 154 -164l-17 -31v-10h27q123 0 180 -162v-30 q0 -70 -299 -93q-123 -174 -215 -174v-10q162 -70 162 -205q0 -41 -127 -397q162 -188 487 -356q125 -61 254 -195v-41q0 -43 -289 -51q-141 0 -524 438h-10q-188 -305 -569 -305h-35q-123 0 -172 82z" />
<glyph unicode="Y" horiz-adv-x="993" d="M31 1104v14q57 84 143 84h29q270 -90 270 -196v-58h14q203 205 215 393h-14l-86 -14q-57 23 -57 43v29q-1 35 114 55h70q125 0 201 -168q-35 -168 -314 -407l-14 -41l29 -84v-183l-15 -71l15 -84v-281q-23 -153 -71 -153h-1h-43q-186 143 -186 280l100 -29l29 84v281 q0 236 -158 338q-66 111 -227 111z" />
<glyph unicode="Z" horiz-adv-x="1005" d="M0 786q0 45 205 162q0 23 76 74q264 324 264 432v19l-10 45l26 18h17q125 0 245 -145v-17q0 -90 -100 -127l-111 -82q197 0 273 -161q0 -84 -121 -199q-264 -360 -381 -408v-8h8q158 35 459 64l-43 153v8l16 19h11q109 0 253 -262l52 -135q0 -162 -95 -236h-24 q-20 0 -59 190l-35 72l-8 -8h-9l-51 8q-281 0 -534 -153q-35 -45 -78 -46q-78 0 -170 181l-8 45v45q0 119 110 119q98 61 256 243q188 219 211 316v18h-8l-25 -8l-43 8h-16q-47 0 -307 -299q-145 -125 -195 -125q-27 0 -51 180zM709 1280h4l35 16v4h-9q-20 0 -30 -20z" />
<glyph unicode="[" horiz-adv-x="645" d="M195 -291q0 102 6 266q14 385 14 607q0 328 -4 523t-16 316h448q-27 -43 -37 -86l-225 13v-1565q127 0 262 16l-37 -90h-411z" />
<glyph unicode="\" horiz-adv-x="827" d="M16 1389v24q39 98 95 98h8q57 1 96 -73v-25l-10 -12h-8l-11 12h-10v-49q109 -381 275 -688q115 -227 348 -514v-25l-19 -37q-96 0 -284 209q-117 166 -349 713q-131 248 -131 367z" />
<glyph unicode="]" horiz-adv-x="645" d="M2 -291q27 43 37 86l225 -12v1565q-127 0 -262 -17l37 90h412q0 -102 -7 -266q-14 -385 -14 -606q0 -328 4.5 -523.5t16.5 -316.5h-449z" />
<glyph unicode="^" horiz-adv-x="888" d="M31 1233q248 43 248 334l151 75v-14h29q389 -164 389 -454h-8l18 -76q-18 -68 -39 -76h-18q-59 0 -256 334l-96 90h-29q-47 -334 -209 -334q-147 0 -180 121z" />
<glyph unicode="_" horiz-adv-x="1024" d="M0 -307h1024v-103h-1024v103z" />
<glyph unicode="`" horiz-adv-x="606" d="M172 1481v12q0 27 39 33q242 -49 242 -232v-65l-19 -23h-20z" />
<glyph unicode="a" horiz-adv-x="1454" d="M-10 571v15q24 22 64 22h3l420 137q14 43 15 191q0 166 -46 266l-8 60l8 8h9q14 -14 67 -15q96 -53 96 -137l-6 -39h6q72 70 113 70h37q84 0 84 -92q0 -145 -129 -258v-8l76 8h75q0 393 29 510l-14 14q-63 -18 -172 -84q-29 -14 -82 -14h-23l-45 37q170 190 240 190h51 q150 0 203 -168l8 -22q-45 -131 -61 -289h-7l7 -37l-15 -62l8 -8l-8 -37v-22l8 6h232q82 0 135 -151q0 -23 -31 -23l-313 31q-25 -8 -31 -31l15 -137l-7 -23l15 -37l14 -387v-16q0 -59 -37 -76q-375 315 -375 410l9 8h8q217 -121 246 -121h8v14h8l-8 93v135l-15 84v84 q-293 -39 -292 -84v-8l8 -37l-17 -68l9 -31l-15 -30l6 -9q-49 -248 -163 -364l-23 -14h-22q-31 0 -31 90v8q0 98 22 98l31 -8q74 195 74 381l-240 -115l-67 -53h-23q-55 0 -141 145zM573 768h39q68 94 68 160l-8 22q-90 -12 -90 -67l8 -9v-14l-17 -84v-8z" />
<glyph unicode="b" horiz-adv-x="1167" d="M0 139v49l147 66l115 98v25h-24q-66 0 -99 98v17q0 31 336 106l74 8h65q33 0 66 -106v-8q0 -12 -164 -107q-33 -31 -213 -98v-8q153 32 287 32h8q0 25 123 25q90 156 147 401l9 33q-268 0 -754 -180h-8q-33 14 -33 57v17q0 163 122 163h1l229 58v8q-86 51 -115 156v8 l17 16l65 -24h41q41 0 41 204q0 88 -49 303l25 33h8q94 0 221 -147v-49l-24 -50l98 17q211 0 287 -172v-17q-125 -184 -295 -245v-17h41q217 0 327 -229v-8q-203 -352 -229 -353v-16q90 -102 90 -131q-6 -66 -65 -66h-50q-80 25 -180 25h-41q-221 0 -491 -131h-9 q-147 59 -147 139zM66 1016v49q0 119 90 205q29 -12 49 -90l-8 -25q16 0 16 -25h8q139 94 213 99l8 -8v-33l-155 -123q-51 -80 -99 -197l-49 -16q-74 98 -73 164zM606 950q162 133 213 303l-82 -8h-57q-25 0 -41 -205q-10 0 -16 -57l-17 -16v-17z" />
<glyph unicode="c" horiz-adv-x="880" d="M33 352l82 666q-82 143 -82 272q0 119 145 119l-16 -102q131 -182 131 -256q293 35 309 90l-176 67l12 31h17q336 -12 346 -123q0 -115 -305 -239l-183 -17l-16 -18l-16 -70l-45 -453h16l405 275q12 86 50 86q72 -119 71 -209q-397 -256 -422 -340l-112 -137 q-211 51 -211 358z" />
<glyph unicode="d" horiz-adv-x="1189" d="M78 70l201 401q229 553 229 686h-14l-201 -43l-29 43q178 244 389 244q0 43 215 43q152 -49 273 -215q-57 -399 -230 -944q-145 -219 -258 -230q-39 25 -188 330l-14 14h-15q-178 -358 -315 -358h-15zM522 614q68 -152 146 -229h14q92 74 250 680l-21 178 q-176 0 -258 -301z" />
<glyph unicode="e" horiz-adv-x="1234" d="M16 555q0 178 70 178q236 301 338 776q-53 31 -53 78l26 19h60q109 0 166 -80v-27q0 -45 -97 -229l312 -273q299 -139 372 -229v-27q-8 -27 -51 -26h-35q-305 0 -372 141q-199 272 -234 299q-41 0 -129 -211q-25 -35 -43 -35q111 -80 111 -106l10 -27l-70 -264v-35h9 q209 137 208 352l9 9h16q113 -41 113 -142v-34q-47 -162 -355 -353l-8 -10v-8q14 -115 164 -115h27q233 0 233 88q16 0 43 98l-8 9l8 61v72h8q84 -78 148 -328v-88q0 -66 -477 -88q-201 0 -250 150l-35 133l-27 -19h-86l-43 19v16q29 33 164 98l10 43l8 318h-8 q-111 -166 -200 -230h-25z" />
<glyph unicode="f" horiz-adv-x="1171" d="M0 1065q0 27 109 43q82 63 335 121v45l-8 76l-41 131v10q6 22 51 45q166 -31 166 -98l21 -23v-55h10l-10 -86v-12l323 55q135 0 189 -164q-20 -68 -78 -68h-90l-186 45l-129 -32v-111l-11 -10v-12l11 -11l49 11h98l41 12q72 0 145 -156v-33l-39 -43h-38q-104 0 -226 89 l-30 -13l-9 -647q0 -166 -88 -166q-72 0 -119 199q37 438 37 758q-6 100 -30 100q-242 -166 -316 -166q-137 63 -137 166z" />
<glyph unicode="g" horiz-adv-x="1402" d="M2 252q102 0 238 319q-47 0 -58 58q106 16 107 73l90 222h-8q-43 -41 -74 -41q-188 104 -188 204l16 17l49 -17h33q37 0 549 205l41 8q139 -53 139 -122v-9q0 -35 -295 -106q-61 -23 -156 -197l-24 -24v-17h24q115 66 246 115q82 -61 82 -164q-74 -285 -74 -360v-74 q23 -213 181 -213q37 -25 147 -33l66 8v9q0 104 -140 344l8 8h17q160 -139 295 -320q31 0 65 -49v-41q-37 -106 -237 -106q-373 0 -467 172q-41 63 -66 147h-8q-281 -158 -393 -237q-156 0 -205 221zM223 293h17q242 106 352 106h8l49 320l-82 -25q-59 0 -106 99 q-16 0 -17 -41l-49 -99v-8q100 0 180 -156q-18 -49 -57 -49l-147 33h-9q-16 -4 -81 -131q-57 -35 -58 -49z" />
<glyph unicode="h" horiz-adv-x="1169" d="M51 459v24q0 16 41 17l131 172l17 106q32 216 32 307v5l9 172q0 66 -50 98v8q0 16 50 33q172 -53 172 -131v-33q0 -84 -41 -123v-24l-25 -197l-16 -49v-8h16q0 86 287 213v262q0 39 -58 90v24q4 17 41 33q172 -51 172 -164v-57q0 -47 -32 -82v-25q-4 -52 -5 -96 q0 -74 13 -125l16 -73v-25l-49 -139l197 -74q180 -70 180 -205v-24q-8 -25 -49 -25q-23 0 -287 164l-25 -8l17 -385q-27 -109 -57 -115h-33q-254 209 -254 246v8l8 8v8l131 -32l8 -9h49l17 17v327h-8q-68 -100 -295 -155l-17 -17v-114l-8 -33q25 -35 25 -205l-25 -24 q-90 0 -123 254v81h-16q0 -25 -49 -65h-33q-74 25 -74 164zM346 492q104 72 172 139h-24l-140 -99h-8v-40zM362 606q96 98 222 99q57 92 57 131h-8l-123 24q-55 0 -90 -139q-58 -90 -58 -115z" />
<glyph unicode="i" horiz-adv-x="1171" d="M-18 168q260 82 364 82v12q-35 168 -41 234q-47 -68 -100 -68q-61 0 -62 162q12 178 62 178q12 -70 51 -70q86 0 106 365h-12l-63 -14q-104 123 -113 217l12 14l64 -14h24l478 123h12q35 0 125 -123q0 -53 -162 -95l12 -55l-6 -158l12 -69l-38 -150v-26q78 74 114 190 l-39 41l39 41h13q86 0 149 -164q-35 -131 -262 -352l-51 -82l-11 -96l314 26q57 0 164 -163v-13q-36 -69 -75 -69h-1l-313 55h-89q-205 0 -555 -80h-12h-4q-107 0 -106 121zM457 510q125 0 125 217v82h-13q0 -41 -100 -178v-13l12 -14v-14zM457 821l125 41l-7 254l-24 29 q0 -33 -64 -41l7 -174q0 -45 -37 -94v-15zM459 276l12 15h76l10 137q-88 -32 -88 -55z" />
<glyph unicode="j" horiz-adv-x="1144" d="M41 801q319 309 319 549v12l-24 35v24l24 23h68q186 0 254 -117q0 -51 -201 -223v-10q297 129 348 129h68q129 0 279 -211v-25q-39 -72 -107 -119q-58 -32 -154 -55l-63 27q96 65 96 166q0 35 -12 75h-14q-223 -129 -267 -129v-24q53 -41 54 -115h4l8 -315l14 -248 l-14 -10v-13l14 -47v-12q0 -172 -121 -221q-106 59 -317 293l-129 227l139 -113v-10q160 -82 201 -82h14v47l13 201v86l12 6l-12 10v25q-4 236 -54 235q-117 0 -280 -235l-54 -25q-70 0 -106 189z" />
<glyph unicode="k" horiz-adv-x="1253" d="M31 23v24q0 168 78 211q150 176 213 422l-33 -25h-35q-190 76 -191 236l13 12h10l68 -24q313 61 313 174l55 223q0 35 -67 113v24l34 37h56q145 0 178 -137q0 -45 -88 -223h10l180 63q78 0 146 -100v-49q0 -55 -393 -150v-25h22q180 -33 180 -174q-168 -326 -168 -422 q10 -49 191 -61q256 0 256 174v123l22 25q117 -123 168 -383q0 -125 -291 -125h-268q-213 45 -213 223l80 522v12l-22 25q-106 -406 -404 -758l-55 -24zM813 1214q0 29 78 37v49q-45 0 -66 52l33 37h10q258 0 258 -224q-18 -63 -67 -63q-246 78 -246 112z" />
<glyph unicode="l" horiz-adv-x="616" d="M23 854v47l20 35q37 -117 150 -117q86 -137 86 -178l-43 -129v-16q96 -176 96 -260v-48l-33 -65v-17q123 0 557 -131l256 19q176 -18 193 -100v-33q0 -66 -289 -178l-672 241h-160q-86 0 -118 199l12 14h94l43 164q-68 0 -96 277v47q-96 31 -96 229zM86 1391v47 q268 -37 268 -242v-115q0 -63 -213 -98l-43 16v50l64 129v65z" />
<glyph unicode="m" horiz-adv-x="1431" d="M0 926v8l16 16q78 0 148 -139h16q131 303 213 303h25q57 -39 90 -131l-8 -41v-65q47 59 82 163h24l17 -41q-164 -461 -213 -532l-66 -16q-49 18 -49 81v50l57 262v41q-68 -106 -123 -320l-8 -57l8 -41h-8l17 -66v-24l-33 -33h-17q-156 117 -155 246v98l8 49 q-8 86 -41 189zM590 582v73q23 123 49 123h16l25 -57l-16 -16v-25h8q90 16 393 303l33 -33v-16q-70 -121 -221 -295q-143 -227 -205 -279h-17q-20 0 -41 91q-23 35 -24 131zM614 1114l205 74q236 131 402 131q94 0 204 -205v-8q-100 -778 -188 -1008q-61 -88 -98 -98 q-209 113 -320 319l-24 66l24 8q158 -115 254 -123q53 0 139 664l9 172l8 33l-8 8h-9q-80 0 -319 -156l-74 -24h-16q-188 45 -189 147z" />
<glyph unicode="n" horiz-adv-x="1312" d="M47 952l12 58l13 6q49 0 110 123q-2 -2 -6 -4l82 161v27l8 35l-18 106l28 9q82 0 175 -132v-18q0 -31 -37 -70q23 -27 121 -53l28 -26h19q25 78 166 202q14 43 65 43h18q14 0 130 -131l-103 -534v-62l-8 -10l8 -8l-18 -105v-80l-9 -34q27 -166 166 -166h37v26 q-29 145 -92 316l8 8h19q137 -156 260 -350q74 -51 74 -107q0 -112 -264 -112h-5q-174 0 -278 131q-92 164 -92 323l47 572h-19q-74 -18 -74 -123q-92 -147 -92 -492l-65 -192q-141 -238 -221 -238h-19q-29 8 -28 53v9q0 176 55 176q94 0 176 649v166l-29 61h-8 q-20 -78 -158 -176h-18v-8l33 -31z" />
<glyph unicode="o" horiz-adv-x="1112" d="M35 489q0 168 147 746l11 12h12q113 -129 112 -233l-102 -195h23q250 88 249 133l11 62v61l-56 -12l-12 12v12l23 87l-68 -25h-10l-45 49q147 232 305 232h90q315 -100 315 -515l13 -243q0 -659 -305 -660q-139 20 -283 86l-68 -24q-328 78 -327 243q-23 0 -35 172z M147 477q0 -123 136 -209v13q-100 156 -101 208h23l135 -135q18 0 80 160q-68 14 -68 35v12q0 23 101 62l12 110q-103 -74 -158 -74l-102 25q-35 -43 -58 -207zM430 305l23 -24h12l33 24h22v-24l-10 -13v-12q57 -37 113 -37h67q160 25 160 135v13q-51 0 -260 122 q-37 -6 -92 -122l-68 -50v-12zM545 1186h33q80 0 79 -86v-49q147 -57 148 -158q0 -49 -170 -86l-45 -172q129 0 270 -74h12v367q-25 342 -102 342h-22l-203 -60v-24z" />
<glyph unicode="p" horiz-adv-x="958" d="M-10 53l104 172q147 322 148 410h-11l-57 -21q-80 0 -80 107v12q0 57 56 86h12l35 -22q125 33 125 118v23l-91 -23q-150 0 -149 99l240 86v10q-35 0 -35 20v13l69 86l-102 -23l-104 43l2 15q159 170 409 170q61 43 105 43q139 -31 262 -172v-23q0 -88 -35 -139 q35 -12 35 -66v-10q-20 -43 -137 -86l-68 -66v-10q80 0 170 -119v-22l-45 -43h-172q-252 0 -252 -119q-86 -328 -297 -528q-66 -53 -115 -54q-23 0 -22 33zM414 1229q68 0 90 -76q76 33 162 33h22l10 53v23h-10l-274 -23v-10zM481 895h35q61 47 92 119h-12q-84 -46 -115 -99 v-20z" />
<glyph unicode="q" horiz-adv-x="1107" d="M-20 37q184 90 296 227v17q-70 0 -94 135v698q0 90 64 90q94 -37 94 -135h14q0 59 95 59q219 -43 219 -180q-31 -303 -78 -350l125 -90l14 59l-14 17v712q-211 -106 -375 -106l-64 45q242 211 408 213h31q176 0 233 -272v-471q0 -301 -108 -396q250 -125 250 -303v-59 l-64 -62q-406 317 -405 410l77 31l-108 120q-188 -499 -532 -499h-1q-78 25 -77 90zM324 356h16q92 195 92 592q-14 90 -47 90h-14l-47 -667v-15z" />
<glyph unicode="r" horiz-adv-x="1320" d="M-25 -27q217 158 365 861l-10 84q41 0 76 333q-66 6 -66 47q0 53 111 84l98 -49q205 97 254 97h35q74 0 163 -119v-37q0 -92 -108 -166v-37q57 0 76 -106v-13l-33 -34h-111q-365 -43 -364 -228q-172 -764 -420 -764q-66 12 -66 35v12zM461 428v10q0 33 78 49v238 q-33 0 -33 37q0 31 55 59q131 -20 131 -168v-10q123 109 123 213h10q94 0 176 -94v-60q-39 -66 -342 -264l-20 -153v-13q135 -59 219 -59q309 31 309 190q23 0 45 179h11q77 -89 77 -432v-9q0 -51 -364 -108h-121q-287 0 -287 299v71q-68 0 -67 25zM506 1012h10 q231 55 232 143q35 27 34 84v23q-61 -59 -221 -119z" />
<glyph unicode="s" horiz-adv-x="944" d="M41 432q16 18 266 84q0 23 164 41h78q94 -16 94 -84v-24q0 -43 -336 -119q-61 -33 -110 -33h-9q-147 53 -147 135zM205 895l8 102l-16 136l8 8h51q104 -8 104 -94v-93q0 -66 -53 -168h10l154 33q-68 145 -68 211l9 8h8q51 -43 51 -67h27q86 158 86 246v16l-9 8v8 q0 -33 -319 -75q-68 8 -68 67q387 203 412 203q123 0 191 -127l8 -51q0 -47 -129 -363l-52 -41v-18h68q104 0 225 -160l9 -51q-199 -666 -422 -666q-102 0 -242 279l8 8h35q82 -59 172 -76h18q109 55 173 244l34 170v100l-10 8v11q-354 -51 -455 -144h-43q-77 10 -77 74.5 t94 253.5z" />
<glyph unicode="t" horiz-adv-x="765" d="M-12 934v16q0 39 123 140q268 156 323 247v41v84l33 17q211 0 262 -90l16 -41q0 -41 -90 -123l-356 -193q66 -135 78 -278l4 -117l-4 -162l-8 -418q0 -23 -41 -41q-82 51 -131 213q16 163 16 402q0 124 -4 270l-16 17q0 -43 -115 -140h-17q-29 0 -73 156z" />
<glyph unicode="u" horiz-adv-x="1275" d="M43 170q31 16 123 35q57 33 221 57q-57 92 -57 189h-17q-68 -82 -114 -82q-82 0 -82 155q0 68 49 189h16l33 -33l-8 -49h8q131 20 131 131q45 319 123 319l8 9l25 -50l-17 -73v-107l-24 -98h8l147 65h25l16 -16v-16q-180 -158 -180 -189v-33l8 -41h-8l8 -24l-8 -74h8 q213 76 213 115l17 491l-8 115h-9l-49 -8q-16 33 -16 90v8q35 82 90 82h8q90 0 131 -147v-369l-16 -90v-16q33 0 139 188v25q-41 0 -41 16v16q20 41 74 41q59 0 139 -139v-8q0 -102 -303 -393q0 -109 -41 -148l16 -16h41q260 -61 332 -170l23 -45q7 -17 7 -32q0 -31 -28 -52 q-178 127 -456 127h-74q-389 0 -492 -142q-109 90 -139 197zM485 279l156 16h74l-8 98q-57 -41 -205 -41q-1 -39 -17 -57v-16z" />
<glyph unicode="v" horiz-adv-x="1497" d="M0 1135v22q16 47 74 47h43q362 0 432 -164q43 -37 233 -446q63 -47 97 -47h10q51 233 166 397q-115 84 -148 154q53 272 97 391v22h-11q-254 -188 -254 -471l-10 -12h-22q-88 0 -158 201q0 160 401 483q43 12 43 47l178 37l127 10h31l53 -57q-35 -45 -211 -131l-10 -59 l-10 -414h31q86 217 243 307h11l30 -35v-47q0 -201 -84 -201q-268 -385 -411 -1015q63 -80 63 -129l-30 -25h-107q-100 0 -180 119v10q0 90 71 190q-375 584 -544 615q-164 90 -244 201z" />
<glyph unicode="w" horiz-adv-x="1423" d="M88 1300q0 84 139 115l82 8q246 0 336 -426v-32h17q18 196 154 196h1l17 17v82q0 369 73 368h8q57 -98 66 -221l-8 -360v-156q14 0 57 131q53 74 107 74q43 221 131 221h8q82 -78 82 -254v-33h-17q-16 0 -24 57h-8q-25 0 -25 -90l8 -327q0 -115 -82 -336h-8q-25 0 -24 33 h-17q-29 -76 -221 -197q-197 -51 -295 -180l-57 -17q-197 113 -197 238q123 354 123 565v66q0 276 -74 327l-114 33l-33 -16v-49q0 -76 106 -336v-17h-8q-104 123 -205 344q-31 88 -98 172zM588 203h8q23 0 238 114q214 115 245 115v8h-41l-213 -82h-65q-47 35 -66 74v33 q106 98 107 172l16 16v9h-8l-25 -9v9l-57 -17q-74 18 -74 66h-8q-6 -180 -24 -181l8 -8v-8q-6 -66 -17 -65l9 -25q-16 0 -33 -221zM776 850l8 -57q31 0 50 196l8 8v17h-17q-37 0 -49 -164zM989 604q0 -74 49 -74q66 -20 66 -81l16 16l-16 57l57 361v8q-111 -100 -172 -287z " />
<glyph unicode="x" horiz-adv-x="1523" d="M29 82v10q0 31 344 121q139 51 297 236v20q-229 236 -461 236l-19 30v21q0 33 119 41h109q150 0 342 -164q45 94 45 325v11q0 39 -45 92v10q0 29 45 31v10q-61 0 -62 21q154 156 154 215h-10q-180 -27 -180 -134l-9 -40l9 -31q-25 -82 -45 -82h-19q-74 0 -108 133 q-131 -102 -207 -102h-11q-109 96 -108 245l27 21h108q190 33 191 51v21q0 53 -82 202v31l28 20h17q227 -25 227 -215v-18l-10 -10v-10h10q244 49 244 120l18 123l-10 10l-8 -10h-19l-26 31q24 82 90 82h8q154 -55 154 -164l-17 -31v-10h27q123 0 180 -162v-30 q0 -70 -299 -93q-123 -174 -215 -174v-10q162 -70 162 -205q0 -41 -127 -397q162 -188 487 -356q125 -61 254 -195v-41q0 -43 -289 -51q-141 0 -524 438h-10q-188 -305 -569 -305h-35q-123 0 -172 82z" />
<glyph unicode="y" horiz-adv-x="993" d="M31 1104v14q57 84 143 84h29q270 -90 270 -196v-58h14q203 205 215 393h-14l-86 -14q-57 23 -57 43v29q-1 35 114 55h70q125 0 201 -168q-35 -168 -314 -407l-14 -41l29 -84v-183l-15 -71l15 -84v-281q-23 -153 -71 -153h-1h-43q-186 143 -186 280l100 -29l29 84v281 q0 236 -158 338q-66 111 -227 111z" />
<glyph unicode="z" horiz-adv-x="1005" d="M0 786q0 45 205 162q0 23 76 74q264 324 264 432v19l-10 45l26 18h17q125 0 245 -145v-17q0 -90 -100 -127l-111 -82q197 0 273 -161q0 -84 -121 -199q-264 -360 -381 -408v-8h8q158 35 459 64l-43 153v8l16 19h11q109 0 253 -262l52 -135q0 -162 -95 -236h-24 q-20 0 -59 190l-35 72l-8 -8h-9l-51 8q-281 0 -534 -153q-35 -45 -78 -46q-78 0 -170 181l-8 45v45q0 119 110 119q98 61 256 243q188 219 211 316v18h-8l-25 -8l-43 8h-16q-47 0 -307 -299q-145 -125 -195 -125q-27 0 -51 180zM709 1280h4l35 16v4h-9q-20 0 -30 -20z" />
<glyph unicode="{" d="M240 639v59q172 4 223 71t51 132v469q0 74 77 141.5t185 67.5h107v-49h-88q-61 0 -107.5 -34t-48.5 -91v-502q0 -82 -60.5 -157.5t-142.5 -75.5v-2q82 -2 143.5 -77t61.5 -159l-2 -500q2 -57 48 -91t108 -34h88v-49h-107q-109 0 -185.5 68t-76.5 141v467q0 68 -51 133.5 t-223 71.5z" />
<glyph unicode="|" d="M426 -418v1995h160v-1995h-160z" />
<glyph unicode="}" d="M129 -340h90q61 0 107.5 42t46.5 118v639q0 104 60.5 200.5t144.5 98.5v2q-84 2 -144.5 98t-60.5 203v637q0 76 -46 118t-108 42h-90v63h109q106 0 184 -86t78 -180v-598q0 -84 50 -169t222 -91v-76q-172 -6 -222 -91t-50 -169v-598q-2 -94 -79 -180t-183 -86h-109v63z " />
<glyph unicode="~" d="M115 743q39 90 114 91l33 -9l33 9h98q86 0 246 -33q262 -74 262 -99v-8q-37 -82 -115 -82q-57 0 -57 17q-35 31 -360 131h-9l66 -66v-8l-8 -8l-66 16l-131 -8h-33q-59 0 -73 57z" />
<glyph unicode="&#xa1;" horiz-adv-x="1038" d="M18 104q0 80 86 80q139 -29 258 -28l95 18l-8 49l-9 187q0 485 68 485h18q68 -98 68 -227l-16 -119v-344l16 -21l301 158h10q102 -29 103 -158q-201 -82 -404 -129v-59h8q45 41 95 41h26l25 -31q0 -25 -154 -88v-168q0 -59 33 -158v-38l-16 -21q-88 0 -156 119l10 59v10 l-113 -69h-59l-96 108v19q8 43 278 149l7 109l-318 -60h-10q-66 0 -146 127zM381 1061v16l39 123q-16 4 -17 27q0 23 109 26l6 -4q61 0 62 31q0 8 20 14q45 0 62 -127v-39q0 -68 -62 -112h-16v8l6 27v4h-6q-49 -54 -88 -54h-4q-59 0 -111 60zM508 1087l72 46v4l-7 4v4l7 18 v4q-72 -10 -72 -80z" />
<glyph unicode="&#xa2;" horiz-adv-x="833" d="M-103 -10v25q233 287 349 514q166 307 274 688v49h-10l-11 -12h-8l-10 12v25q39 73 96 73h9q55 0 94 -98v-24q0 -119 -131 -367q-231 -547 -349 -713q-188 -209 -284 -209zM-4 352l82 666q-82 143 -82 272q0 119 145 119l-16 -102q131 -182 131 -256q293 35 309 90 l-176 67l12 31h17q336 -12 346 -123q0 -115 -305 -239l-183 -17l-16 -18l-16 -70l-45 -453h16l405 275q12 86 50 86q72 -119 71 -209q-397 -256 -422 -340l-112 -137q-211 51 -211 358z" />
<glyph unicode="&#xa3;" horiz-adv-x="1269" d="M-204 506v12q0 35 327 139q201 47 310 47h122l41 -12l41 12q94 0 144 -129q-18 -82 -92 -81h-41l-164 12l-82 -23l-10 11v12l81 94h-10q-408 -143 -452 -188q0 -23 -72 -23q-96 0 -143 117zM111 891v47l20 35q37 -117 150 -117q86 -137 86 -178l-43 -129v-16 q96 -176 96 -260v-48l-33 -65v-17q123 0 557 -131l256 19q176 -18 193 -100v-33q0 -66 -289 -178l-672 241h-160q-86 0 -118 199l12 14h94l43 164q-68 0 -96 277v47q-96 31 -96 229zM174 1428v47q268 -37 268 -242v-115q0 -63 -213 -98l-43 16v50l64 129v65z" />
<glyph unicode="&#xa4;" horiz-adv-x="983" d="M29 270l102 103q-100 123 -100 286q0 80 25.5 154t74.5 133l-102 103l73 73l103 -102q61 49 133 74.5t154 25.5q78 0 152.5 -26.5t133.5 -73.5l103 102l73 -73l-102 -103q100 -123 100 -287q0 -80 -25.5 -153.5t-74.5 -132.5l102 -103l-73 -73l-103 102 q-61 -49 -133 -74.5t-153 -25.5q-78 0 -153 26.5t-134 73.5l-103 -102zM188 659q0 -135 86 -225t218 -90q129 0 216 91t87 224q0 135 -86 225.5t-217 90.5q-129 0 -216.5 -91t-87.5 -225z" />
<glyph unicode="&#xa5;" horiz-adv-x="1136" d="M0 1343v29q12 39 84 39h111q168 0 260 -205q186 -217 260 -217q37 211 121 314q139 70 194 69h21q129 0 129 -78v-10h-11q-197 0 -268 -197l-29 -88v-10l66 39q131 -63 131 -205q-8 -49 -29 -49h-10q-27 0 -26 39h-48q-166 -25 -165 -88l-21 -117q98 78 131 78h8l21 -20 v-19l-131 -137q121 -106 121 -168l-11 -8l-92 8h-74q-29 -8 -28 -57v-119l10 -49h45l21 -19v-30q0 -68 -84 -68q-66 0 -113 158v96l18 31v18h-26q-90 0 -140 98v31q25 47 103 78q-45 102 -160 166v31q0 27 252 127v8q-111 78 -334 295l-233 127zM575 616l11 -96q18 1 73 146 v10h-10z" />
<glyph unicode="&#xa6;" horiz-adv-x="1157" d="M481 -276v727h187v-727h-187zM481 696v729h187v-729h-187z" />
<glyph unicode="&#xa7;" horiz-adv-x="1079" d="M63 -74q0 66 109 262l10 107l-18 141l8 8h59q121 -8 121 -98v-96q0 -68 -61 -174h12l178 33q-80 154 -80 221l11 8h10q59 -45 59 -70h31q98 164 98 256v17l-8 10v8q0 -35 -371 -80q-78 8 -77 72q448 211 477 211q141 0 219 -133l10 -54q0 -49 -149 -378l-60 -43v-19h78 q121 0 234 -74q121 -254 0 -370q-176 -43 -338 248l10 8h39q96 -61 186 -103q-16 94 -65 123l-66 19v10q-410 -53 -526 -150h-49q-90 10 -91 80zM145 750q0 63 95 251l8 103l-17 135l9 8h51q104 -8 104 -94v-92q0 -66 -53 -168h10l154 33q-68 145 -68 211l8 8h9 q51 -43 51 -68h26q86 158 86 246v16l-8 9v8q0 -33 -319 -76q-68 8 -68 68q387 202 412 202q123 0 190 -127l9 -51q0 -47 -129 -362l-52 -41v-19h68q104 0 184 -86l15 -78l-50 -110l-163 100l14 31v10q-354 -51 -455 -143h-43q-78 10 -78 76z" />
<glyph unicode="&#xa8;" horiz-adv-x="1015" d="M338 1286v39q0 68 61 113h17v-8l-6 -27v-4h6q49 53 88 53h4q59 0 110 -59v-17l-38 -123q16 -4 16 -26q0 -23 -109 -27l-6 4q-61 0 -61 -30q0 -8 -21 -15q-45 0 -61 127zM420 1286q72 10 72 80l-72 -45v-4l6 -4v-4l-6 -19v-4zM684 1292v39q0 68 61 113h17v-8l-6 -27v-4h6 q49 53 88 53h4q59 0 111 -59v-17l-39 -122q16 -4 16 -27t-108 -27l-7 4q-61 0 -61 -30q0 -8 -21 -15q-45 0 -61 127zM766 1292q72 10 72 80l-72 -45v-4l6 -4v-4l-6 -19v-4z" />
<glyph unicode="&#xa9;" horiz-adv-x="1603" d="M29 694v74q0 442 456 729q150 66 318 66h88q459 0 577 -351l78 -198v-74q0 -557 -575 -776q-133 -39 -266 -39q-502 0 -656 416zM109 709q0 -367 389 -508l170 -29q395 0 659 389l37 92h-10l-56 -18h-8q84 190 84 340v10q0 348 -270 453q-115 37 -195 37h-75 q-526 0 -707 -590zM383 1032l6 10q16 31 88 15l125 231q-27 14 -8 49q16 31 76 35q96 -78 20 -221l-6 -10q158 53 211 155l8 -4q78 -41 96 -170l-30 -57q-66 -47 -418 -109l-96 -141l-6 -12q80 -117 147 -154q268 -104 352 51q18 -10 129 156l8 -6q16 -121 -163 -463 q-27 -51 -355 53l-100 52q-233 125 -78 417l37 70q-55 29 -43 53z" />
<glyph unicode="&#xaa;" horiz-adv-x="931" d="M20 1190v8q16 16 43 16l273 89q8 29 8 122q0 109 -29 174l-4 39l4 4h7q8 -8 43 -8q61 -35 61 -90l-4 -24h4q47 45 74 45h24q53 0 54 -60q0 -94 -84 -168v-6l49 6h49q0 256 18 332l-8 8q-41 -12 -113 -55q-18 -8 -51 -8h-16l-29 24q111 123 156 123h33q96 0 131 -108 l6 -15q-31 -86 -41 -188h-4l4 -25l-8 -39l4 -6l-4 -22v-17l4 5h149q53 0 88 -99q0 -14 -20 -14l-203 20q-14 -6 -18 -20l8 -88l-4 -15l10 -24l8 -252v-10q0 -39 -22 -49q-244 205 -244 266l6 4h6q139 -78 158 -78h6v10h4l-4 60v88l-10 53v55q-188 -25 -189 -55v-4l5 -25 l-11 -43l6 -20l-10 -21l4 -4q-31 -162 -104 -237l-17 -10h-14q-18 0 -18 59v6q0 63 14 64l18 -7q49 127 50 248l-156 -74l-43 -34h-14q-37 0 -93 94zM397 1317h25q45 61 45 104l-6 15q-58 -8 -58 -43l5 -7v-10l-11 -53v-6z" />
<glyph unicode="&#xab;" horiz-adv-x="808" d="M57 569q0 301 289 510l27 -28q-84 -88 -128 -214t-44 -266q0 -141 44 -267t128 -214l-27 -31q-147 106 -218 237.5t-71 272.5zM436 569q0 133 68.5 266.5t218.5 243.5l27 -28q-170 -193 -170 -478q0 -135 43 -262t127 -221l-27 -31q-141 100 -214 235.5t-73 274.5z" />
<glyph unicode="&#xac;" horiz-adv-x="1363" d="M129 827v185h1106v-672h-184l-2 487h-920z" />
<glyph unicode="&#xad;" horiz-adv-x="1122" d="M111 676v12q0 35 327 139q201 47 310 47h122l41 -12l41 12q94 0 144 -129q-18 -82 -92 -81h-41l-164 12l-82 -23l-10 11v12l81 94h-10q-408 -143 -452 -188q0 -23 -72 -23q-96 0 -143 117z" />
<glyph unicode="&#xae;" horiz-adv-x="1603" d="M29 694v74q0 442 456 729q150 66 318 66h88q459 0 577 -351l78 -198v-74q0 -557 -575 -776q-133 -39 -266 -39q-502 0 -656 416zM109 709q0 -367 389 -508l170 -29q395 0 659 389l37 92h-10l-56 -18h-8q84 190 84 340v10q0 348 -270 453q-115 37 -195 37h-75 q-526 0 -707 -590zM299 369v8q129 113 217 610l-6 60q25 0 45 235q-39 4 -39 35q0 37 66 59l57 -35q123 68 152 68h20q43 0 96 -84v-27q0 -66 -63 -116v-27q35 0 45 -76v-8l-21 -24h-65q-215 -31 -215 -162q-102 -541 -250 -541q-39 8 -39 25zM588 700v7q0 23 45 34v168 q-18 0 -19 27q0 23 33 43q78 -14 78 -121v-6q72 78 72 152h6q57 0 104 -68v-41q-23 -47 -202 -188l-13 -109v-8q80 -43 131 -43q182 23 183 135q14 0 26 127h6q47 -63 47 -313q0 -35 -217 -76h-71q-170 0 -170 211v51q-39 0 -39 18zM614 1112h7q137 41 137 102q20 18 20 60 v16q-37 -43 -131 -84z" />
<glyph unicode="&#xaf;" horiz-adv-x="0" d="M317 1163q47 92 52 99q29 49 69 49l365 -2q35 0 47 22l24 -16q-55 -143 -96 -144l-420 -4q-14 -10 -16 -18z" />
<glyph unicode="&#xb0;" horiz-adv-x="641" d="M6 1405v81q0 141 133 234h37v-16l-14 -56v-8h14q106 111 190 111h11q129 0 239 -123v-35l-84 -256q35 -8 35 -55t-235 -56l-15 9q-133 0 -133 -64q0 -18 -45 -31q-98 0 -133 265zM184 1405q156 23 156 165l-156 -92v-10l15 -8v-8l-15 -39v-8z" />
<glyph unicode="&#xb1;" horiz-adv-x="1228" d="M82 655q0 20 168 61q109 66 274 101q12 35 12 123v26l-12 15q-121 -143 -150 -144q-43 0 -71 191q4 53 119 211v12q-39 0 -72 123l6 6h37q137 0 340 102h18q39 0 101 -114v-21q0 -29 -185 -96l-12 -59h6q70 43 131 59h13q106 -35 106 -129q0 -80 -178 -236 q-59 -31 -60 -41h7l237 21h78q92 0 143 -158q-12 -27 -30 -26l-226 20h-55l-160 -6l-12 -21q-8 -223 -18 -223l6 -8q-18 -352 -54 -352h-6q-35 0 -53 577h-18l-209 -90q-76 -74 -119 -74q-102 94 -102 150zM222 -29q0 35 327 139q201 47 310 47h122l41 -12l41 12 q94 0 144 -129q-18 -82 -92 -81h-41l-164 12l-82 -23l-10 11v12l81 94h-10q-408 -143 -452 -188q0 -23 -72 -23q-96 0 -143 117v12zM393 1054h6l137 56l4 26l-4 76q-16 -2 -143 -158zM655 974q125 154 125 203q-111 -41 -113 -61v-74z" />
<glyph unicode="&#xb2;" horiz-adv-x="557" d="M-18 1392q0 22 102 81q0 11 38 37q132 162 132 216v10l-4 22l12 9h9q63 0 123 -73v-8q0 -45 -50 -64l-56 -40q98 0 136 -81q0 -42 -60 -99q-132 -180 -190 -204v-4h4q78 17 229 32l-21 76v4l8 10h5q55 0 127 -132l26 -67q0 -81 -48 -118h-12q-10 0 -30 95l-17 36l-4 -4 h-5l-25 4q-141 0 -267 -76q-18 -23 -39 -24q-39 0 -85 91l-4 23v22q0 60 55 60q49 30 128 121q94 109 105 158v9h-4l-12 -4l-22 4h-8q-23 0 -153 -150q-73 -62 -97 -62q-14 0 -26 90zM336 1639h2l18 8v2h-4q-10 0 -16 -10z" />
<glyph unicode="&#xb3;" horiz-adv-x="602" d="M2 1328v14q37 45 186 114l156 137q-48 92 -48 115v13q28 40 83 40h29l14 -9q0 -24 -26 -40q50 -237 168 -388q36 0 35 -88l-13 -14h-12q-46 32 -101 115h-4l4 -159l5 -22q68 -32 82 -48v-8l-21 -10h-43l-14 10l-17 -67q-25 -75 -125 -75q-238 12 -238 44v44 q31 125 73 164h5v-36l4 -30l-4 -5q13 -49 21 -49q0 -44 117 -44h13q75 0 82 58v4l-5 4q-153 96 -176 177v17q0 50 56 71h8l4 -5q0 -107 104 -176h4v18l-34 132l5 14q0 13 55 52q-8 0 -21 18q-44 106 -65 106q-17 -14 -116 -150q-34 -70 -187 -70h-17q-22 0 -26 12z" />
<glyph unicode="&#xb4;" horiz-adv-x="778" d="M440 1370v62q0 168 269 213q43 -4 43 -31v-10l-269 -254h-22z" />
<glyph unicode="&#xb5;" horiz-adv-x="1275" d="M43 170q31 16 123 35q57 33 221 57q-57 92 -57 189h-17q-68 -82 -114 -82q-82 0 -82 155q0 68 49 189h16l33 -33l-8 -49h8q131 20 131 131q45 319 123 319l8 9l25 -50l-17 -73v-107l-24 -98h8l147 65h25l16 -16v-16q-180 -158 -180 -189v-33l8 -41h-8l8 -24l-8 -74h8 q213 76 213 115l17 491l-8 115h-9l-49 -8q-16 33 -16 90v8q35 82 90 82h8q90 0 131 -147v-369l-16 -90v-16q33 0 139 188v25q-41 0 -41 16v16q20 41 74 41q59 0 139 -139v-8q0 -102 -303 -393q0 -109 -41 -148l16 -16h41l-24 -29l-152 37h21l-8 98q-57 -41 -205 -41 q0 -39 -17 -57l-18 -193q-213 -31 -285 -129q-109 90 -139 197z" />
<glyph unicode="&#xb6;" horiz-adv-x="1300" d="M92 1112q0 160 149.5 258t397.5 98h616v-71h-176v-1393h-114v1393h-232v-1393h-117v752q-242 8 -383 105t-141 251z" />
<glyph unicode="&#xb7;" horiz-adv-x="440" d="M0 766v14q0 53 143 158q9 51 27 51h27l176 -158q20 -29 20 -65q0 -100 -217 -201q-45 0 -156 180z" />
<glyph unicode="&#xb8;" horiz-adv-x="0" d="M250 -184q59 70 92 108q57 68 86 113h55l-59 -84q76 -43 104.5 -71.5t28.5 -51.5q0 -43 -207 -266l-55 39q90 96 90 121q0 23 -35 45t-100 47z" />
<glyph unicode="&#xb9;" horiz-adv-x="419" d="M23 1588v10q48 78 212 158l27 -98q4 -92 12 -178l3 -69l-3 -97l-6 -249q0 -13 -26 -25q-52 30 -84 127q20 207 8 401l-11 11q0 -25 -74 -84h-10q-19 0 -48 93z" />
<glyph unicode="&#xba;" horiz-adv-x="763" d="M49 1300q0 80 94 349l9 6h6q74 -61 73 -109l-65 -92h14q160 41 160 64l8 28v29l-37 -6l-8 6v4l14 41l-43 -12h-6l-28 22q94 109 196 109h58q203 -47 202 -240l9 -113q0 -307 -197 -307q-90 10 -182 41l-43 -12q-211 37 -211 113q-14 0 -23 79zM121 1296q0 -57 88 -98v6 q-66 72 -66 96h15l88 -61q12 0 51 74q-43 6 -43 16v6q0 10 63 29l9 51q-66 -35 -101 -35l-67 13q-23 -20 -37 -97zM303 1217l14 -13h9l22 13h14v-13l-8 -6v-6q37 -16 74 -16h43q102 12 102 63v6q-33 0 -167 55q-23 -2 -58 -55l-45 -24v-4zM377 1626h22q51 0 52 -41v-22 q94 -27 94 -74q0 -23 -109 -39l-30 -82q84 0 174 -33h8v170q-14 160 -66 160h-14l-131 -29v-10z" />
<glyph unicode="&#xbb;" horiz-adv-x="808" d="M59 90q86 94 128 221t42 262q0 285 -170 478l29 28q150 -111 218.5 -244t68.5 -266q0 -139 -73 -274t-214 -236zM438 90q82 88 127 214t45 267q0 139 -44 265.5t-128 214.5l27 28q287 -209 287 -510q0 -141 -70 -272t-217 -238z" />
<glyph unicode="&#xbc;" horiz-adv-x="1216" d="M145 160v25q233 287 349 514q166 307 274 688v49h-10l-11 -12h-8l-10 12v25q39 73 96 73h9q55 0 94 -98v-24q0 -119 -131 -367q-231 -547 -349 -713q-188 -209 -284 -209zM170 1309v11q48 76 212 157l26 -99q6 -90 12 -176l4 -70l-4 -96l-4 -250q0 -14 -27 -25 q-52 31 -84 127q21 207 8 402l-11 10q0 -26 -74 -84h-10q-20 0 -48 93zM692 700l6 6h6l34 -6q110 92 110 153h5q21 0 43 -13l18 -26l-8 -50l-49 -67q-29 -15 -65 -33v-6l17 -38l-33 -103h6q82 31 82 85l40 12l16 -30l44 18q38 0 82 -66q0 -38 -71 -38h-27l-12 -12 q-9 -440 -44 -440h-11q-27 82 -28 416h-11l-28 -31q-4 0 -8 -3l-88 -29l1 5l1 2v6h-1l-1 19h2v147q0 60 -28 122z" />
<glyph unicode="&#xbd;" horiz-adv-x="1193" d="M76 1264v10q48 78 212 158l26 -98q6 -92 12 -178l4 -69l-4 -97l-4 -249q0 -13 -27 -25q-52 30 -84 127q21 207 8 401l-11 11q0 -25 -74 -84h-10q-20 0 -48 93zM92 133v25q233 287 349 514q166 307 274 688v49h-10l-11 -12h-8l-10 12v25q39 73 96 73h9q55 0 94 -98v-24 q0 -119 -131 -367q-231 -547 -349 -713q-188 -209 -284 -209zM590 440q0 22 102 81q0 11 38 37q132 162 132 216v10l-4 22l12 9h9q63 0 123 -73v-8q0 -45 -50 -64l-56 -40q98 0 136 -81q0 -42 -60 -99q-132 -180 -190 -204v-4h4q78 17 229 32l-21 76v4l8 10h5q55 0 127 -132 l26 -67q0 -81 -48 -118h-12q-10 0 -30 95l-17 36l-4 -4h-5l-25 4q-141 0 -267 -76q-18 -23 -39 -24q-39 0 -85 91l-4 23v22q0 60 55 60q49 30 128 121q94 109 105 158v9h-4l-12 -4l-22 4h-8q-23 0 -153 -150q-73 -62 -97 -62q-14 0 -26 90zM944 687h2l18 8v2h-4 q-10 0 -16 -10z" />
<glyph unicode="&#xbe;" horiz-adv-x="1101" d="M16 1050v13q37 45 186 115l156 136q-48 92 -48 114v14q28 40 83 40h29l14 -10q0 -23 -26 -38q50 -238 168 -388q36 0 35 -90l-13 -13h-12q-46 31 -101 115h-4l4 -159l5 -21q68 -34 82 -50v-8l-21 -9h-43l-14 9l-17 -66q-25 -75 -125 -75q-238 11 -238 44v44 q31 125 73 164h5v-36l4 -31l-4 -4q13 -49 21 -49q0 -44 117 -44h13q75 0 82 57v4l-5 6q-153 94 -176 176v17q0 50 56 71h8l4 -4q0 -108 104 -176h4v17l-34 132l5 13q0 14 55 54q-8 0 -21 17q-44 105 -65 105q-17 -13 -116 -149q-34 -71 -187 -71h-17q-22 0 -26 14zM161 127 v25q233 287 349 514q166 307 274 688v49h-10l-11 -12h-8l-10 12v25q39 73 96 73h9q55 0 94 -98v-24q0 -119 -131 -367q-231 -547 -349 -713q-188 -209 -284 -209zM722 700l6 6h4l34 -6q111 92 111 153h5q22 0 43 -13l17 -26l-6 -50l-50 -67q-28 -15 -64 -33v-6l16 -38 l-34 -103h6q84 31 84 85l38 12l16 -30l44 18q38 0 84 -66q0 -38 -72 -38h-28l-11 -12q-9 -440 -44 -440h-11q-28 82 -28 416h-11l-28 -31q-4 0 -8 -3l-88 -29l1 5l1 2v6h-1l-1 19h2v147q0 60 -27 122z" />
<glyph unicode="&#xbf;" horiz-adv-x="1007" d="M156 -117l77 615l183 84q201 31 217 86l-84 71l12 31h17q197 -39 206 -149q0 -115 -192 -187l-156 -43l-16 -18l-17 -70l-45 -453h17l405 275q12 86 49 86q72 -119 72 -209q-397 -256 -422 -340l-112 -137q-211 51 -211 358zM377 938v20l51 164q-20 6 -20 35q0 31 143 35 l8 -4q80 0 80 41q0 10 27 18q59 0 82 -168v-53q0 -88 -82 -149h-21v12l8 35v6h-8q-66 -72 -117 -72h-6q-78 0 -145 80zM545 973l94 59v6l-8 4v7l8 24v6q-94 -14 -94 -106z" />
<glyph unicode="&#xc0;" horiz-adv-x="1331" d="M-20 501v15q25 23 67 22l420 137q14 43 15 191q0 166 -46 266l-8 60l8 8h9q14 -14 67 -15q96 -53 96 -137l-6 -39h6q72 70 113 70h37q84 0 84 -92q0 -145 -129 -258v-8l76 8h75q0 393 29 510l-14 14q-63 -18 -172 -84q-29 -14 -82 -14h-23l-45 37q170 190 240 190h51 q150 0 203 -168l8 -22q-45 -131 -61 -289h-7l7 -37l-15 -62l8 -8l-8 -37v-22l8 6h232q82 0 135 -151q0 -23 -31 -23l-313 31q-25 -8 -31 -31l15 -137l-7 -23l15 -37l14 -387v-16q0 -59 -37 -76q-375 315 -375 410l9 8h8q217 -121 246 -121h8v14h8l-8 93v135l-15 84v84 q-293 -39 -292 -84v-8l8 -37l-17 -68l9 -31l-15 -30l6 -9q-49 -248 -163 -364l-23 -14h-22q-31 0 -31 90v8q0 98 22 98l31 -8q74 195 74 381l-240 -115l-67 -53h-23q-55 0 -141 145zM373 1643v12q0 27 39 33q242 -49 242 -232v-65l-19 -23h-20zM563 698h39q68 94 68 160 l-8 22q-90 -12 -90 -67l8 -9v-14l-17 -84v-8z" />
<glyph unicode="&#xc1;" horiz-adv-x="1222" d="M-51 505v15q25 23 67 22l420 137q14 43 15 191q0 166 -46 266l-8 60l8 8h9q14 -14 67 -15q96 -53 96 -137l-6 -39h6q72 70 113 70h37q84 0 84 -92q0 -145 -129 -258v-8l76 8h75q0 393 29 510l-14 14q-63 -18 -172 -84q-29 -14 -82 -14h-23l-45 37q170 190 240 190h51 q150 0 203 -168l8 -22q-45 -131 -61 -289h-7l7 -37l-15 -62l8 -8l-8 -37v-22l8 6h232q82 0 135 -151q0 -23 -31 -23l-313 31q-25 -8 -31 -31l15 -137l-7 -23l15 -37l14 -387v-16q0 -59 -37 -76q-375 315 -375 410l9 8h8q217 -121 246 -121h8v14h8l-8 93v135l-15 84v84 q-293 -39 -292 -84v-8l8 -37l-17 -68l9 -31l-15 -30l6 -9q-49 -248 -163 -364l-23 -14h-22q-31 0 -31 90v8q0 98 22 98l31 -8q74 195 74 381l-240 -115l-67 -53h-23q-55 0 -141 145zM532 702h39q68 94 68 160l-8 22q-90 -12 -90 -67l8 -9v-14l-17 -84v-8zM702 1466v62 q0 168 269 213q43 -4 43 -31v-10l-269 -254h-22z" />
<glyph unicode="&#xc2;" horiz-adv-x="1331" d="M35 524v15q25 23 67 22l420 137q14 43 15 191q0 166 -46 266l-8 60l8 8h9q14 -14 67 -15q96 -53 96 -137l-6 -39h6q72 70 113 70h37q84 0 84 -92q0 -145 -129 -258v-8l76 8h75q0 393 29 510l-14 14q-63 -18 -172 -84q-29 -14 -82 -14h-23l-45 37q170 190 240 190h51 q150 0 203 -168l8 -22q-45 -131 -61 -289h-7l7 -37l-15 -62l8 -8l-8 -37v-22l8 6h232q82 0 135 -151q0 -23 -31 -23l-313 31q-25 -8 -31 -31l15 -137l-7 -23l15 -37l14 -387v-16q0 -59 -37 -76q-375 315 -375 410l9 8h8q217 -121 246 -121h8v14h8l-8 93v135l-15 84v84 q-293 -39 -292 -84v-8l8 -37l-17 -68l9 -31l-15 -30l6 -9q-49 -248 -163 -364l-23 -14h-22q-31 0 -31 90v8q0 98 22 98l31 -8q74 195 74 381l-240 -115l-67 -53h-23q-55 0 -141 145zM389 1538q213 23 213 181l131 40v-8h25q336 -88 335 -245h-8l17 -41q-16 -37 -33 -41h-16 q-51 0 -222 180l-82 49h-24q-41 -180 -180 -180q-127 0 -156 65zM618 721h39q68 94 68 160l-8 22q-90 -12 -90 -67l8 -9v-14l-17 -84v-8z" />
<glyph unicode="&#xc3;" horiz-adv-x="1331" d="M-14 505v15q25 23 67 22l420 137q14 43 15 191q0 166 -46 266l-8 60l8 8h9q14 -14 67 -15q96 -53 96 -137l-6 -39h6q72 70 113 70h37q84 0 84 -92q0 -145 -129 -258v-8l76 8h75q0 393 29 510l-14 14q-63 -18 -172 -84q-29 -14 -82 -14h-23l-45 37q170 190 240 190h51 q150 0 203 -168l8 -22q-45 -131 -61 -289h-7l7 -37l-15 -62l8 -8l-8 -37v-22l8 6h232q82 0 135 -151q0 -23 -31 -23l-313 31q-25 -8 -31 -31l15 -137l-7 -23l15 -37l14 -387v-16q0 -59 -37 -76q-375 315 -375 410l9 8h8q217 -121 246 -121h8v14h8l-8 93v135l-15 84v84 q-293 -39 -292 -84v-8l8 -37l-17 -68l9 -31l-15 -30l6 -9q-49 -248 -163 -364l-23 -14h-22q-31 0 -31 90v8q0 98 22 98l31 -8q74 195 74 381l-240 -115l-67 -53h-23q-55 0 -141 145zM415 1536v17q0 25 11 26h30l4 -4h5q-12 -16 -13 -33v-14q8 -33 39 -33q18 0 47 74 q88 107 180 107q53 0 191 -91q49 -23 86 -22q68 0 145 113h9v-11q-106 -170 -209 -170q-49 0 -136 64q-61 31 -116 31h-2q-115 0 -152 -99q-18 -23 -37 -22h-6q-76 14 -76 67zM555 1501v9q46 63 118 63h15q68 0 170 -84l43 -4h12q84 0 164 64h4v-2q-55 -86 -199 -125l-37 -7 q-109 33 -127 68q-53 33 -98 35zM569 702h39q68 94 68 160l-8 22q-90 -12 -90 -67l8 -9v-14l-17 -84v-8z" />
<glyph unicode="&#xc4;" horiz-adv-x="1370" d="M6 530v15q25 23 67 22l420 137q14 43 15 191q0 166 -46 266l-8 60l8 8h9q14 -14 67 -15q96 -53 96 -137l-6 -39h6q72 70 113 70h37q84 0 84 -92q0 -145 -129 -258v-8l76 8h75q0 393 29 510l-14 14q-63 -18 -172 -84q-29 -14 -82 -14h-23l-45 37q170 190 240 190h51 q150 0 203 -168l8 -22q-45 -131 -61 -289h-7l7 -37l-15 -62l8 -8l-8 -37v-22l8 6h232q82 0 135 -151q0 -23 -31 -23l-313 31q-25 -8 -31 -31l15 -137l-7 -23l15 -37l14 -387v-16q0 -59 -37 -76q-375 315 -375 410l9 8h8q217 -121 246 -121h8v14h8l-8 93v135l-15 84v84 q-293 -39 -292 -84v-8l8 -37l-17 -68l9 -31l-15 -30l6 -9q-49 -248 -163 -364l-23 -14h-22q-31 0 -31 90v8q0 98 22 98l31 -8q74 195 74 381l-240 -115l-67 -53h-23q-55 0 -141 145zM481 1612v39q0 68 61 113h17v-8l-6 -27v-4h6q49 53 88 53h4q59 0 110 -59v-17l-38 -123 q16 -4 16 -26q0 -23 -109 -27l-6 4q-61 0 -61 -30q0 -8 -21 -15q-45 0 -61 127zM563 1612q72 10 72 80l-72 -45v-4l6 -4v-4l-6 -19v-4zM589 727h39q68 94 68 160l-8 22q-90 -12 -90 -67l8 -9v-14l-17 -84v-8zM827 1618v39q0 68 61 113h17v-8l-6 -27v-4h6q49 53 88 53h4 q59 0 111 -59v-17l-39 -122q16 -4 16 -27t-108 -27l-7 4q-61 0 -61 -30q0 -8 -21 -15q-45 0 -61 127zM909 1618q72 10 72 80l-72 -45v-4l6 -4v-4l-6 -19v-4z" />
<glyph unicode="&#xc5;" horiz-adv-x="1220" d="M-45 571v15q25 23 67 22l420 137q14 43 15 191q0 166 -46 266l-8 60l8 8h9q14 -14 67 -15q96 -53 96 -137l-6 -39h6q72 70 113 70h37q84 0 84 -92q0 -145 -129 -258v-8l76 8h75q0 393 29 510l-14 14q-63 -18 -172 -84q-29 -14 -82 -14h-23l-45 37q170 190 240 190h51 q150 0 203 -168l8 -22q-45 -131 -61 -289h-7l7 -37l-15 -62l8 -8l-8 -37v-22l8 6h232q82 0 135 -151q0 -23 -31 -23l-313 31q-25 -8 -31 -31l15 -137l-7 -23l15 -37l14 -387v-16q0 -59 -37 -76q-375 315 -375 410l9 8h8q217 -121 246 -121h8v14h8l-8 93v135l-15 84v84 q-293 -39 -292 -84v-8l8 -37l-17 -68l9 -31l-15 -30l6 -9q-49 -248 -163 -364l-23 -14h-22q-31 0 -31 90v8q0 98 22 98l31 -8q74 195 74 381l-240 -115l-67 -53h-23q-55 0 -141 145zM319 1548q0 72 51.5 123t122.5 51q70 0 121 -51.5t139 57.5q-88 -254 -137 -303t-123 -49 q-72 0 -123 49t-51 123zM397 1548q0 -41 27.5 -68.5t68.5 -27.5t67.5 26.5t26.5 69.5q0 39 -12 51t-82 45q-41 0 -68.5 -27.5t-27.5 -68.5zM538 768h39q68 94 68 160l-8 22q-90 -12 -90 -67l8 -9v-14l-17 -84v-8z" />
<glyph unicode="&#xc6;" horiz-adv-x="2078" d="M0 530v15q25 23 67 22l420 137q14 43 15 191q0 166 -46 266l-8 60l8 8h9q14 -14 67 -15q96 -53 96 -137l-6 -39h6q72 70 113 70h37q84 0 84 -92q0 -145 -129 -258v-8l76 8h75q0 393 29 510l-14 14q-63 -18 -172 -84q-29 -14 -82 -14h-23l-45 37q170 190 240 190h51 q150 0 203 -168l8 -22q-45 -131 -61 -289h-7l7 -37l-15 -62l8 -8l-8 -37v-22l8 6h232q82 0 135 -151q0 -23 -31 -23l-313 31q-25 -8 -31 -31l15 -137l-7 -23l15 -37l14 -387v-16q0 -59 -37 -76q-375 315 -375 410l9 8h8q217 -121 246 -121h8v14h8l-8 93v135l-15 84v84 q-293 -39 -292 -84v-8l8 -37l-17 -68l9 -31l-15 -30l6 -9q-49 -248 -163 -364l-23 -14h-22q-31 0 -31 90v8q0 98 22 98l31 -8q74 195 74 381l-240 -115l-67 -53h-23q-55 0 -141 145zM583 727h39q68 94 68 160l-8 22q-90 -12 -90 -67l8 -9v-14l-17 -84v-8zM893 412 q0 178 70 178q236 301 338 776q-53 31 -53 78l26 19h60q109 0 166 -80v-27q0 -45 -97 -229l312 -273q299 -139 372 -229v-27q-8 -27 -51 -26h-35q-305 0 -372 141q-199 272 -234 299q-41 0 -129 -211q-25 -35 -43 -35q111 -80 111 -106l10 -27l-70 -264v-35h9 q209 137 208 352l9 9h16q113 -41 113 -142v-34q-47 -162 -355 -353l-8 -10v-8q14 -115 164 -115h27q233 0 233 88q16 0 43 98l-8 9l8 61v72h8q84 -78 148 -328v-88q0 -66 -477 -88q-201 0 -250 150l-35 133l-27 -19h-86l-43 19v16q29 33 164 98l10 43l8 318h-8 q-111 -166 -200 -230h-25z" />
<glyph unicode="&#xc7;" horiz-adv-x="876" d="M37 -164q59 70 92 108q57 68 86 113h55l-59 -84q76 -43 104.5 -71.5t28.5 -51.5q0 -43 -207 -266l-55 39q90 96 90 121q0 23 -35 45t-100 47zM37 332l82 666q-82 143 -82 272q0 119 145 119l-16 -102q131 -182 131 -256q293 35 309 90l-176 67l12 31h17q336 -12 346 -123 q0 -115 -305 -239l-183 -17l-16 -18l-16 -70l-45 -453h16l405 275q12 86 50 86q72 -119 71 -209q-397 -256 -422 -340l-112 -137q-211 51 -211 358z" />
<glyph unicode="&#xc8;" horiz-adv-x="880" d="M-72 313q0 178 70 178q236 301 338 776q-53 31 -53 78l26 19h60q109 0 166 -80v-27q0 -45 -97 -229l312 -273q299 -139 372 -229v-27q-8 -27 -51 -26h-35q-305 0 -372 141q-199 272 -234 299q-41 0 -129 -211q-25 -35 -43 -35q111 -80 111 -106l10 -27l-70 -264v-35h9 q209 137 208 352l9 9h16q113 -41 113 -142v-34q-47 -162 -355 -353l-8 -10v-8q14 -115 164 -115h27q233 0 233 88q16 0 43 98l-8 9l8 61v72h8q84 -78 148 -328v-88q0 -66 -477 -88q-201 0 -250 150l-35 133l-27 -19h-86l-43 19v16q29 33 164 98l10 43l8 318h-8 q-111 -166 -200 -230h-25zM12 1721v12q0 27 39 33q242 -49 242 -232v-65l-19 -23h-20z" />
<glyph unicode="&#xc9;" horiz-adv-x="1191" d="M-2 395q0 178 70 178q236 301 338 776q-53 31 -53 78l26 19h60q109 0 166 -80v-27q0 -45 -97 -229l312 -273q299 -139 372 -229v-27q-8 -27 -51 -26h-35q-305 0 -372 141q-199 272 -234 299q-41 0 -129 -211q-25 -35 -43 -35q111 -80 111 -106l10 -27l-70 -264v-35h9 q209 137 208 352l9 9h16q113 -41 113 -142v-34q-47 -162 -355 -353l-8 -10v-8q14 -115 164 -115h27q233 0 233 88q16 0 43 98l-8 9l8 61v72h8q84 -78 148 -328v-88q0 -66 -477 -88q-201 0 -250 150l-35 133l-27 -19h-86l-43 19v16q29 33 164 98l10 43l8 318h-8 q-111 -166 -200 -230h-25zM731 1249v62q0 168 269 213q43 -4 43 -31v-10l-269 -254h-22z" />
<glyph unicode="&#xca;" horiz-adv-x="1003" d="M49 389q0 178 70 178q236 301 338 776q-53 31 -53 78l26 19h60q109 0 166 -80v-27q0 -45 -97 -229l312 -273q299 -139 372 -229v-27q-8 -27 -51 -26h-35q-305 0 -372 141q-199 272 -234 299q-41 0 -129 -211q-25 -35 -43 -35q111 -80 111 -106l10 -27l-70 -264v-35h9 q209 137 208 352l9 9h16q113 -41 113 -142v-34q-47 -162 -355 -353l-8 -10v-8q14 -115 164 -115h27q233 0 233 88q16 0 43 98l-8 9l8 61v72h8q84 -78 148 -328v-88q0 -66 -477 -88q-201 0 -250 150l-35 133l-27 -19h-86l-43 19v16q29 33 164 98l10 43l8 318h-8 q-111 -166 -200 -230h-25zM113 1489q213 23 213 181l131 40v-8h25q336 -88 335 -245h-8l17 -41q-16 -37 -33 -41h-16q-51 0 -222 180l-82 49h-24q-41 -180 -180 -180q-127 0 -156 65z" />
<glyph unicode="&#xcb;" horiz-adv-x="903" d="M-27 434q0 178 70 178q236 301 338 776q-53 31 -53 78l26 19h60q109 0 166 -80v-27q0 -45 -97 -229l312 -273q299 -139 372 -229v-27q-8 -27 -51 -26h-35q-305 0 -372 141q-199 272 -234 299q-41 0 -129 -211q-25 -35 -43 -35q111 -80 111 -106l10 -27l-70 -264v-35h9 q209 137 208 352l9 9h16q113 -41 113 -142v-34q-47 -162 -355 -353l-8 -10v-8q14 -115 164 -115h27q233 0 233 88q16 0 43 98l-8 9l8 61v72h8q84 -78 148 -328v-88q0 -66 -477 -88q-201 0 -250 150l-35 133l-27 -19h-86l-43 19v16q29 33 164 98l10 43l8 318h-8 q-111 -166 -200 -230h-25zM199 1634v39q0 68 61 113h17v-8l-6 -27v-4h6q49 53 88 53h4q59 0 110 -59v-17l-38 -123q16 -4 16 -26q0 -23 -109 -27l-6 4q-61 0 -61 -30q0 -8 -21 -15q-45 0 -61 127zM281 1634q72 10 72 80l-72 -45v-4l6 -4v-4l-6 -19v-4zM545 1640v39 q0 68 61 113h17v-8l-6 -27v-4h6q49 53 88 53h4q59 0 111 -59v-17l-39 -122q16 -4 16 -27t-108 -27l-7 4q-61 0 -61 -30q0 -8 -21 -15q-45 0 -61 127zM627 1640q72 10 72 80l-72 -45v-4l6 -4v-4l-6 -19v-4z" />
<glyph unicode="&#xcc;" horiz-adv-x="1198" d="M0 168q260 82 364 82v12q-35 168 -41 234q-47 -68 -100 -68q-61 0 -62 162q12 178 62 178q12 -70 51 -70q86 0 106 365h-12l-63 -14q-104 123 -113 217l12 14l64 -14h24l478 123h12q35 0 125 -123q0 -53 -162 -95l12 -55l-6 -158l12 -69l-38 -150v-26q78 74 114 190 l-39 41l39 41h13q86 0 149 -164q-35 -131 -262 -352l-51 -82l-11 -96l314 26q57 0 164 -163v-13q-37 -70 -76 -69l-313 55h-89q-205 0 -555 -80h-12q-111 -2 -110 121zM190 1481v12q0 27 39 33q242 -49 242 -232v-65l-19 -23h-20zM475 510q125 0 125 217v82h-13 q0 -41 -100 -178v-13l12 -14v-14zM475 821l125 41l-7 254l-24 29q0 -33 -64 -41l7 -174q0 -45 -37 -94v-15zM477 276l12 15h76l10 137q-88 -32 -88 -55z" />
<glyph unicode="&#xcd;" horiz-adv-x="1140" d="M7 102q260 82 364 82v12q-35 168 -41 234q-47 -68 -100 -68q-61 0 -62 162q12 178 62 178q12 -70 51 -70q86 0 106 365h-12l-63 -14q-104 123 -113 217l12 14l64 -14h24l478 123h12q35 0 125 -123q0 -53 -162 -95l12 -55l-6 -158l12 -69l-38 -150v-26q78 74 114 190 l-39 41l39 41h13q86 0 149 -164q-35 -131 -262 -352l-51 -82l-11 -96l314 26q57 0 164 -163v-13q-37 -70 -76 -69l-313 55h-89q-205 0 -555 -80h-12q-111 -2 -110 121zM482 444q125 0 125 217v82h-13q0 -41 -100 -178v-13l12 -14v-14zM482 755l125 41l-7 254l-24 29 q0 -33 -64 -41l7 -174q0 -45 -37 -94v-15zM484 210l12 15h76l10 137q-88 -32 -88 -55zM534 1304v62q0 168 269 213q43 -4 43 -31v-10l-269 -254h-22z" />
<glyph unicode="&#xce;" horiz-adv-x="1202" d="M35 100q260 82 364 82v12q-35 168 -41 234q-47 -68 -100 -68q-61 0 -62 162q12 178 62 178q12 -70 51 -70q86 0 106 365h-12l-63 -14q-104 123 -113 217l12 14l64 -14h24l478 123h12q35 0 125 -123q0 -53 -162 -95l12 -55l-6 -158l12 -69l-38 -150v-26q78 74 114 190 l-39 41l39 41h13q86 0 149 -164q-35 -131 -262 -352l-51 -82l-11 -96l314 26q57 0 164 -163v-13q-37 -70 -76 -69l-313 55h-89q-205 0 -555 -80h-12q-111 -2 -110 121zM131 1489q213 23 213 181l131 40v-8h25q336 -88 335 -245h-8l17 -41q-16 -37 -33 -41h-16 q-51 0 -222 180l-82 49h-24q-41 -180 -180 -180q-127 0 -156 65zM510 442q125 0 125 217v82h-13q0 -41 -100 -178v-13l12 -14v-14zM510 753l125 41l-7 254l-24 29q0 -33 -64 -41l7 -174q0 -45 -37 -94v-15zM512 208l12 15h76l10 137q-88 -32 -88 -55z" />
<glyph unicode="&#xcf;" horiz-adv-x="1167" d="M13 168q260 82 364 82v12q-35 168 -41 234q-47 -68 -100 -68q-61 0 -62 162q12 178 62 178q12 -70 51 -70q86 0 106 365h-12l-63 -14q-104 123 -113 217l12 14l64 -14h24l478 123h12q35 0 125 -123q0 -53 -162 -95l12 -55l-6 -158l12 -69l-38 -150v-26q78 74 114 190 l-39 41l39 41h13q86 0 149 -164q-35 -131 -262 -352l-51 -82l-11 -96l314 26q57 0 164 -163v-13q-37 -70 -76 -69l-313 55h-89q-205 0 -555 -80h-12q-111 -2 -110 121zM287 1431v39q0 68 61 113h17v-8l-6 -27v-4h6q49 53 88 53h4q59 0 110 -59v-17l-38 -123q16 -4 16 -26 q0 -23 -109 -27l-6 4q-61 0 -61 -30q0 -8 -21 -15q-45 0 -61 127zM369 1431q72 10 72 80l-72 -45v-4l6 -4v-4l-6 -19v-4zM488 510q125 0 125 217v82h-13q0 -41 -100 -178v-13l12 -14v-14zM488 821l125 41l-7 254l-24 29q0 -33 -64 -41l7 -174q0 -45 -37 -94v-15zM490 276 l12 15h76l10 137q-88 -32 -88 -55zM633 1437v39q0 68 61 113h17v-8l-6 -27v-4h6q49 53 88 53h4q59 0 111 -59v-17l-39 -122q16 -4 16 -27t-108 -27l-7 4q-61 0 -61 -30q0 -8 -21 -15q-45 0 -61 127zM715 1437q72 10 72 80l-72 -45v-4l6 -4v-4l-6 -19v-4z" />
<glyph unicode="&#xd0;" horiz-adv-x="1212" d="M23 11l201 401q229 553 229 686h-14l-201 -43l-29 43q178 244 389 244q0 43 215 43q152 -49 273 -215q-57 -399 -230 -944q-145 -219 -258 -230q-39 25 -188 330l-14 14h-15q-178 -358 -315 -358h-15zM54 920v12q0 35 327 139q201 47 310 47h122l41 -12l41 12 q94 0 144 -129q-18 -82 -92 -81h-41l-164 12l-82 -23l-10 11v12l81 94h-10q-408 -143 -452 -188q0 -23 -72 -23q-96 0 -143 117zM467 555q68 -152 146 -229h14q92 74 250 680l-21 178q-176 0 -258 -301z" />
<glyph unicode="&#xd1;" horiz-adv-x="1214" d="M47 882l12 58l13 6q49 0 110 123q-2 -2 -6 -4l82 161v27l8 35l-18 106l28 9q82 0 175 -132v-18q0 -31 -37 -70q23 -27 121 -53l28 -26h19q25 78 166 202q14 43 65 43h18q14 0 130 -131l-103 -534v-62l-8 -10l8 -8l-18 -105v-80l-9 -34q27 -166 166 -166h37v26 q-29 145 -92 316l8 8h19q137 -156 260 -350q74 -51 74 -107q0 -113 -269 -112q-174 0 -278 131q-92 164 -92 323l47 572h-19q-74 -18 -74 -123q-92 -147 -92 -492l-65 -192q-141 -238 -221 -238h-19q-29 8 -28 53v9q0 176 55 176q94 0 176 649v166l-29 61h-8 q-20 -78 -158 -176h-18v-8l33 -31zM231 1556v17q0 25 11 26h30l4 -4h5q-12 -16 -13 -33v-14q8 -33 39 -33q18 0 47 74q88 107 180 107q53 0 191 -91q49 -23 86 -22q68 0 145 113h9v-11q-106 -170 -209 -170q-49 0 -136 64q-61 31 -116 31h-2q-115 0 -152 -99 q-18 -23 -37 -22h-6q-76 14 -76 67zM371 1521v9q46 63 118 63h15q68 0 170 -84l43 -4h12q84 0 164 64h4v-2q-55 -86 -199 -125l-37 -7q-109 33 -127 68q-53 33 -98 35z" />
<glyph unicode="&#xd2;" horiz-adv-x="1638" d="M43 337q0 168 147 746l11 12h12q113 -129 112 -233l-102 -195h23q250 88 249 133l11 62v61l-56 -12l-12 12v12l23 87l-68 -25h-10l-45 49q147 232 305 232h90q315 -100 315 -515l13 -243q0 -659 -305 -660q-139 20 -283 86l-68 -24q-328 78 -327 243q-23 0 -35 172z M155 325q0 -123 136 -209v13q-100 156 -101 208h23l135 -135q18 0 80 160q-68 14 -68 35v12q0 23 101 62l12 110q-103 -74 -158 -74l-102 25q-35 -43 -58 -207zM438 153l23 -24h12l33 24h22v-24l-10 -13v-12q57 -37 113 -37h67q160 25 160 135v13q-51 0 -260 122 q-37 -6 -92 -122l-68 -50v-12zM448 1739v12q0 27 39 33q242 -49 242 -232v-65l-19 -23h-20zM553 1034h33q80 0 79 -86v-49q147 -57 148 -158q0 -49 -170 -86l-45 -172q129 0 270 -74h12v367q-25 342 -102 342h-22l-203 -60v-24z" />
<glyph unicode="&#xd3;" horiz-adv-x="1069" d="M31 452q0 168 147 746l11 12h12q113 -129 112 -233l-102 -195h23q250 88 249 133l11 62v61l-56 -12l-12 12v12l23 87l-68 -25h-10l-45 49q147 232 305 232h90q315 -100 315 -515l13 -243q0 -659 -305 -660q-139 20 -283 86l-68 -24q-328 78 -327 243q-23 0 -35 172z M143 440q0 -123 136 -209v13q-100 156 -101 208h23l135 -135q18 0 80 160q-68 14 -68 35v12q0 23 101 62l12 110q-103 -74 -158 -74l-102 25q-35 -43 -58 -207zM426 268l23 -24h12l33 24h22v-24l-10 -13v-12q57 -37 113 -37h67q160 25 160 135v13q-51 0 -260 122 q-37 -6 -92 -122l-68 -50v-12zM541 1149h33q80 0 79 -86v-49q147 -57 148 -158q0 -49 -170 -86l-45 -172q129 0 270 -74h12v367q-25 342 -102 342h-22l-203 -60v-24zM643 1524v62q0 168 269 213q43 -4 43 -31v-10l-269 -254h-22z" />
<glyph unicode="&#xd4;" horiz-adv-x="1081" d="M12 444q0 168 147 746l11 12h12q113 -129 112 -233l-102 -195h23q250 88 249 133l11 62v61l-56 -12l-12 12v12l23 87l-68 -25h-10l-45 49q147 232 305 232h90q315 -100 315 -515l13 -243q0 -659 -305 -660q-139 20 -283 86l-68 -24q-328 78 -327 243q-23 0 -35 172z M104 1718q213 23 213 181l131 40v-8h25q336 -88 335 -245h-8l17 -41q-16 -37 -33 -41h-16q-51 0 -222 180l-82 49h-24q-41 -180 -180 -180q-127 0 -156 65zM124 432q0 -123 136 -209v13q-100 156 -101 208h23l135 -135q18 0 80 160q-68 14 -68 35v12q0 23 101 62l12 110 q-103 -74 -158 -74l-102 25q-35 -43 -58 -207zM407 260l23 -24h12l33 24h22v-24l-10 -13v-12q57 -37 113 -37h67q160 25 160 135v13q-51 0 -260 122q-37 -6 -92 -122l-68 -50v-12zM522 1141h33q80 0 79 -86v-49q147 -57 148 -158q0 -49 -170 -86l-45 -172q129 0 270 -74h12 v367q-25 342 -102 342h-22l-203 -60v-24z" />
<glyph unicode="&#xd5;" horiz-adv-x="1085" d="M21 483q0 168 147 746l11 12h12q113 -129 112 -233l-102 -195h23q250 88 249 133l11 62v61l-56 -12l-12 12v12l23 87l-68 -25h-10l-45 49q147 232 305 232h90q315 -100 315 -515l13 -243q0 -659 -305 -660q-139 20 -283 86l-68 -24q-328 78 -327 243q-23 0 -35 172z M133 471q0 -123 136 -209v13q-100 156 -101 208h23l135 -135q18 0 80 160q-68 14 -68 35v12q0 23 101 62l12 110q-103 -74 -158 -74l-102 25q-35 -43 -58 -207zM301 1581v17q0 25 11 26h30l4 -4h5q-12 -16 -13 -33v-14q8 -33 39 -33q18 0 47 74q88 107 180 107q53 0 191 -91 q49 -23 86 -22q68 0 145 113h9v-11q-106 -170 -209 -170q-49 0 -136 64q-61 31 -116 31h-2q-115 0 -152 -99q-18 -23 -37 -22h-6q-76 14 -76 67zM416 299l23 -24h12l33 24h22v-24l-10 -13v-12q57 -37 113 -37h67q160 25 160 135v13q-51 0 -260 122q-37 -6 -92 -122l-68 -50 v-12zM441 1546v9q46 63 118 63h15q68 0 170 -84l43 -4h12q84 0 164 64h4v-2q-55 -86 -199 -125l-37 -7q-109 33 -127 68q-53 33 -98 35zM531 1180h33q80 0 79 -86v-49q147 -57 148 -158q0 -49 -170 -86l-45 -172q129 0 270 -74h12v367q-25 342 -102 342h-22l-203 -60v-24z " />
<glyph unicode="&#xd6;" horiz-adv-x="1140" d="M-14 440q0 168 147 746l11 12h12q113 -129 112 -233l-102 -195h23q250 88 249 133l11 62v61l-56 -12l-12 12v12l23 87l-68 -25h-10l-45 49q147 232 305 232h90q315 -100 315 -515l13 -243q0 -659 -305 -660q-139 20 -283 86l-68 -24q-328 78 -327 243q-23 0 -35 172z M98 428q0 -123 136 -209v13q-100 156 -101 208h23l135 -135q18 0 80 160q-68 14 -68 35v12q0 23 101 62l12 110q-103 -74 -158 -74l-102 25q-35 -43 -58 -207zM342 1610v39q0 68 61 113h17v-8l-6 -27v-4h6q49 53 88 53h4q59 0 110 -59v-17l-38 -123q16 -4 16 -26 q0 -23 -109 -27l-6 4q-61 0 -61 -30q0 -8 -21 -15q-45 0 -61 127zM381 256l23 -24h12l33 24h22v-24l-10 -13v-12q57 -37 113 -37h67q160 25 160 135v13q-51 0 -260 122q-37 -6 -92 -122l-68 -50v-12zM424 1610q72 10 72 80l-72 -45v-4l6 -4v-4l-6 -19v-4zM496 1137h33 q80 0 79 -86v-49q147 -57 148 -158q0 -49 -170 -86l-45 -172q129 0 270 -74h12v367q-25 342 -102 342h-22l-203 -60v-24zM688 1616v39q0 68 61 113h17v-8l-6 -27v-4h6q49 53 88 53h4q59 0 111 -59v-17l-39 -122q16 -4 16 -27t-108 -27l-7 4q-61 0 -61 -30q0 -8 -21 -15 q-45 0 -61 127zM770 1616q72 10 72 80l-72 -45v-4l6 -4v-4l-6 -19v-4z" />
<glyph unicode="&#xd7;" horiz-adv-x="1523" d="M29 82v10q0 31 344 121q139 51 297 236v20q-229 236 -461 236l-19 30v21q0 33 119 41h109q150 0 342 -164q45 94 45 325v11q0 39 -45 92v10q0 29 45 31v2l51 6q158 -70 158 -203q0 -41 -127 -397q162 -188 487 -356q125 -61 254 -195v-41q0 -43 -289 -51q-141 0 -524 438 h-10q-188 -305 -569 -305h-35q-123 0 -172 82z" />
<glyph unicode="&#xd8;" horiz-adv-x="1060" d="M15 464q0 168 147 746l11 12h12q113 -129 112 -233l-102 -195h23q250 88 249 133l11 62v61l-56 -12l-12 12v12l23 87l-68 -25h-10l-45 49q147 232 305 232h90q315 -100 315 -515l13 -243q0 -659 -305 -660q-139 20 -283 86l-68 -24q-328 78 -327 243q-23 0 -35 172z M127 452q0 -123 136 -209v13q-100 156 -101 208h23l135 -135q18 0 80 160q-68 14 -68 35v12q0 23 101 62l12 110q-103 -74 -158 -74l-102 25q-35 -43 -58 -207zM276 84v25q233 287 349 514q166 307 274 688v49h-10l-11 -12h-8l-10 12v25q39 73 96 73h9q55 0 94 -98v-24 q0 -119 -131 -367q-231 -547 -349 -713q-188 -209 -284 -209zM410 280l23 -24h12l33 24h22v-24l-10 -13v-12q57 -37 113 -37h67q160 25 160 135v13q-51 0 -260 122q-37 -6 -92 -122l-68 -50v-12zM525 1161h33q80 0 79 -86v-49q147 -57 148 -158q0 -49 -170 -86l-45 -172 q129 0 270 -74h12v367q-25 342 -102 342h-22l-203 -60v-24z" />
<glyph unicode="&#xd9;" horiz-adv-x="1224" d="M8 115q31 16 123 35q57 33 221 57q-57 92 -57 189h-17q-68 -82 -114 -82q-82 0 -82 155q0 68 49 189h16l33 -33l-8 -49h8q131 20 131 131q45 319 123 319l8 9l25 -50l-17 -73v-107l-24 -98h8l147 65h25l16 -16v-16q-180 -158 -180 -189v-33l8 -41h-8l8 -24l-8 -74h8 q213 76 213 115l17 491l-8 115h-9l-49 -8q-16 33 -16 90v8q35 82 90 82h8q90 0 131 -147v-369l-16 -90v-16q33 0 139 188v25q-41 0 -41 16v16q20 41 74 41q59 0 139 -139v-8q0 -102 -303 -393q0 -109 -41 -148l16 -16h41q260 -61 332 -170l23 -45q20 -53 -21 -84 q-178 127 -456 127h-74q-389 0 -492 -142q-109 90 -139 197zM215 1501v12q0 27 39 33q242 -49 242 -232v-65l-19 -23h-20zM450 224l156 16h74l-8 98q-57 -41 -205 -41q-1 -39 -17 -57v-16z" />
<glyph unicode="&#xda;" horiz-adv-x="1185" d="M-6 90q31 16 123 35q57 33 221 57q-57 92 -57 189h-17q-68 -82 -114 -82q-82 0 -82 155q0 68 49 189h16l33 -33l-8 -49h8q131 20 131 131q45 319 123 319l8 9l25 -50l-17 -73v-107l-24 -98h8l147 65h25l16 -16v-16q-180 -158 -180 -189v-33l8 -41h-8l8 -24l-8 -74h8 q213 76 213 115l17 491l-8 115h-9l-49 -8q-16 33 -16 90v8q35 82 90 82h8q90 0 131 -147v-369l-16 -90v-16q33 0 139 188v25q-41 0 -41 16v16q20 41 74 41q59 0 139 -139v-8q0 -102 -303 -393q0 -109 -41 -148l16 -16h41q260 -61 332 -170l23 -45q20 -53 -21 -84 q-178 127 -456 127h-74q-389 0 -492 -142q-109 90 -139 197zM407 1249v62q0 168 269 213q43 -4 43 -31v-10l-269 -254h-22zM436 199l156 16h74l-8 98q-57 -41 -205 -41q-1 -39 -17 -57v-16z" />
<glyph unicode="&#xdb;" horiz-adv-x="1220" d="M0 147q31 16 123 35q57 33 221 57q-57 92 -57 189h-17q-68 -82 -114 -82q-82 0 -82 155q0 68 49 189h16l33 -33l-8 -49h8q131 20 131 131q45 319 123 319l8 9l25 -50l-17 -73v-107l-24 -98h8l147 65h25l16 -16v-16q-180 -158 -180 -189v-33l8 -41h-8l8 -24l-8 -74h8 q213 76 213 115l17 491l-8 115h-9l-49 -8q-16 33 -16 90v8q35 82 90 82h8q90 0 131 -147v-369l-16 -90v-16q33 0 139 188v25q-41 0 -41 16v16q20 41 74 41q59 0 139 -139v-8q0 -102 -303 -393q0 -109 -41 -148l16 -16h41q260 -61 332 -170l23 -45q20 -53 -21 -84 q-178 127 -456 127h-74q-389 0 -492 -142q-109 90 -139 197zM119 1579q213 23 213 181l131 40v-8h25q336 -88 335 -245h-8l17 -41q-16 -37 -33 -41h-16q-51 0 -222 180l-82 49h-24q-41 -180 -180 -180q-127 0 -156 65zM442 256l156 16h74l-8 98q-57 -41 -205 -41 q-1 -39 -17 -57v-16z" />
<glyph unicode="&#xdc;" horiz-adv-x="1226" d="M-4 170q31 16 123 35q57 33 221 57q-57 92 -57 189h-17q-68 -82 -114 -82q-82 0 -82 155q0 68 49 189h16l33 -33l-8 -49h8q131 20 131 131q45 319 123 319l8 9l25 -50l-17 -73v-107l-24 -98h8l147 65h25l16 -16v-16q-180 -158 -180 -189v-33l8 -41h-8l8 -24l-8 -74h8 q213 76 213 115l17 491l-8 115h-9l-49 -8q-16 33 -16 90v8q35 82 90 82h8q90 0 131 -147v-369l-16 -90v-16q33 0 139 188v25q-41 0 -41 16v16q20 41 74 41q59 0 139 -139v-8q0 -102 -303 -393q0 -109 -41 -148l16 -16h41q260 -61 332 -170l23 -45q20 -53 -21 -84 q-178 127 -456 127h-74q-389 0 -492 -142q-109 90 -139 197zM217 1460v39q0 68 61 113h17v-8l-6 -27v-4h6q49 53 88 53h4q59 0 110 -59v-17l-38 -123q16 -4 16 -26q0 -23 -109 -27l-6 4q-61 0 -61 -30q0 -8 -21 -15q-45 0 -61 127zM299 1460q72 10 72 80l-72 -45v-4l6 -4v-4 l-6 -19v-4zM438 279l156 16h74l-8 98q-57 -41 -205 -41q-1 -39 -17 -57v-16zM563 1466v39q0 68 61 113h17v-8l-6 -27v-4h6q49 53 88 53h4q59 0 111 -59v-17l-39 -122q16 -4 16 -27t-108 -27l-7 4q-61 0 -61 -30q0 -8 -21 -15q-45 0 -61 127zM645 1466q72 10 72 80l-72 -45 v-4l6 -4v-4l-6 -19v-4z" />
<glyph unicode="&#xdd;" horiz-adv-x="958" d="M31 1104v14q57 84 143 84h29q270 -90 270 -196v-58h14q203 205 215 393h-14l-86 -14q-57 23 -57 43v29q-1 35 114 55h70q125 0 201 -168q-35 -168 -314 -407l-14 -41l29 -84v-183l-15 -71l15 -84v-281q-23 -154 -72 -153h-43q-186 143 -186 280l100 -29l29 84v281 q0 236 -158 338q-66 111 -227 111zM286 1319v62q0 168 269 213q43 -4 43 -31v-10l-269 -254h-22z" />
<glyph unicode="&#xde;" horiz-adv-x="1034" d="M29 1016l102 24l16 349l185 192l-4 -410v-65q188 66 317 65h45q227 0 318 -313v-33q0 -231 -332 -544l-121 -50q-137 82 -197 82v-16q-43 -594 -120 -594h-31q-39 0 -92 907l-68 68zM262 479l96 -24h154q250 139 250 579h-21q-422 -67 -422 -145v-314z" />
<glyph unicode="&#xdf;" horiz-adv-x="1167" d="M8 188v50l148 65l114 98v25h-24q-66 0 -99 98v17q0 31 336 106l74 8h66q33 0 65 -106v-8q0 -12 -164 -107q-33 -31 -213 -98l-84 -258q-30 -13 -63 -29h-8q-147 59 -148 139zM66 1016v49q0 119 90 205q29 -12 49 -90l-8 -25q16 0 16 -25h8q139 94 213 99l8 -8v-33 l-155 -123q-51 -80 -99 -197l-49 -16q-74 98 -73 164zM82 647v17q0 164 123 163l229 58v8q-86 51 -115 156v8l17 16l65 -24h41q41 0 41 204q0 88 -49 303l25 33h8q94 0 221 -147v-49l-24 -50l98 17q211 0 287 -172v-17q-125 -184 -295 -245v-17h41q217 0 327 -229v-8 q-203 -352 -229 -353v-16q90 -102 90 -131q-6 -66 -65 -66h-50q-80 25 -180 25h-41q-111 0 -231 -33l92 209q47 4 90 4q0 25 123 25q90 156 147 401l9 33q-268 0 -754 -180h-8q-33 14 -33 57zM606 950q162 133 213 303l-82 -8h-57q-25 0 -41 -205q-10 0 -16 -57l-17 -16v-17 z" />
<glyph unicode="&#xe0;" horiz-adv-x="1230" d="M-6 569v15q25 23 67 22l420 137q14 43 15 191q0 166 -46 266l-8 60l8 8h9q14 -14 67 -15q96 -53 96 -137l-6 -39h6q72 70 113 70h37q84 0 84 -92q0 -145 -129 -258v-8l76 8h75q0 393 29 510l-14 14q-63 -18 -172 -84q-29 -14 -82 -14h-23l-45 37q170 190 240 190h51 q150 0 203 -168l8 -22q-45 -131 -61 -289h-7l7 -37l-15 -62l8 -8l-8 -37v-22l8 6h232q82 0 135 -151q0 -23 -31 -23l-313 31q-25 -8 -31 -31l15 -137l-7 -23l15 -37l14 -387v-16q0 -59 -37 -76q-375 315 -375 410l9 8h8q217 -121 246 -121h8v14h8l-8 93v135l-15 84v84 q-293 -39 -292 -84v-8l8 -37l-17 -68l9 -31l-15 -30l6 -9q-49 -248 -163 -364l-23 -14h-22q-31 0 -31 90v8q0 98 22 98l31 -8q74 195 74 381l-240 -115l-67 -53h-23q-55 0 -141 145zM104 1688v12q0 27 39 33q242 -49 242 -232v-65l-19 -23h-20zM577 766h39q68 94 68 160 l-8 22q-90 -12 -90 -67l8 -9v-14l-17 -84v-8z" />
<glyph unicode="&#xe1;" horiz-adv-x="1394" d="M15 481v15q25 23 67 22l420 137q14 43 15 191q0 166 -46 266l-8 60l8 8h9q14 -14 67 -15q96 -53 96 -137l-6 -39h6q72 70 113 70h37q84 0 84 -92q0 -145 -129 -258v-8l76 8h75q0 393 29 510l-14 14q-63 -18 -172 -84q-29 -14 -82 -14h-23l-45 37q170 190 240 190h51 q150 0 203 -168l8 -22q-45 -131 -61 -289h-7l7 -37l-15 -62l8 -8l-8 -37v-22l8 6h232q82 0 135 -151q0 -23 -31 -23l-313 31q-25 -8 -31 -31l15 -137l-7 -23l15 -37l14 -387v-16q0 -59 -37 -76q-375 315 -375 410l9 8h8q217 -121 246 -121h8v14h8l-8 93v135l-15 84v84 q-293 -39 -292 -84v-8l8 -37l-17 -68l9 -31l-15 -30l6 -9q-49 -248 -163 -364l-23 -14h-22q-31 0 -31 90v8q0 98 22 98l31 -8q74 195 74 381l-240 -115l-67 -53h-23q-55 0 -141 145zM598 678h39q68 94 68 160l-8 22q-90 -12 -90 -67l8 -9v-14l-17 -84v-8zM702 1466v62 q0 168 269 213q43 -4 43 -31v-10l-269 -254h-22z" />
<glyph unicode="&#xe2;" horiz-adv-x="1177" d="M2 579v15q25 23 67 22l420 137q14 43 15 191q0 166 -46 266l-8 60l8 8h9q14 -14 67 -15q96 -53 96 -137l-6 -39h6q72 70 113 70h37q84 0 84 -92q0 -145 -129 -258v-8l76 8h75q0 393 29 510l-14 14q-63 -18 -172 -84q-29 -14 -82 -14h-23l-45 37q170 190 240 190h51 q150 0 203 -168l8 -22q-45 -131 -61 -289h-7l7 -37l-15 -62l8 -8l-8 -37v-22l8 6h232q82 0 135 -151q0 -23 -31 -23l-313 31q-25 -8 -31 -31l15 -137l-7 -23l15 -37l14 -387v-16q0 -59 -37 -76q-375 315 -375 410l9 8h8q217 -121 246 -121h8v14h8l-8 93v135l-15 84v84 q-293 -39 -292 -84v-8l8 -37l-17 -68l9 -31l-15 -30l6 -9q-49 -248 -163 -364l-23 -14h-22q-31 0 -31 90v8q0 98 22 98l31 -8q74 195 74 381l-240 -115l-67 -53h-23q-55 0 -141 145zM311 1783q213 23 213 181l131 40v-8h25q336 -88 335 -245h-8l17 -41q-16 -37 -33 -41h-16 q-51 0 -222 180l-82 49h-24q-41 -180 -180 -180q-127 0 -156 65zM585 776h39q68 94 68 160l-8 22q-90 -12 -90 -67l8 -9v-14l-17 -84v-8z" />
<glyph unicode="&#xe3;" horiz-adv-x="1257" d="M0 544v15q25 23 67 22l420 137q14 43 15 191q0 166 -46 266l-8 60l8 8h9q14 -14 67 -15q96 -53 96 -137l-6 -39h6q72 70 113 70h37q84 0 84 -92q0 -145 -129 -258v-8l76 8h75q0 393 29 510l-14 14q-63 -18 -172 -84q-29 -14 -82 -14h-23l-45 37q170 190 240 190h51 q150 0 203 -168l8 -22q-45 -131 -61 -289h-7l7 -37l-15 -62l8 -8l-8 -37v-22l8 6h232q82 0 135 -151q0 -23 -31 -23l-313 31q-25 -8 -31 -31l15 -137l-7 -23l15 -37l14 -387v-16q0 -59 -37 -76q-375 315 -375 410l9 8h8q217 -121 246 -121h8v14h8l-8 93v135l-15 84v84 q-293 -39 -292 -84v-8l8 -37l-17 -68l9 -31l-15 -30l6 -9q-49 -248 -163 -364l-23 -14h-22q-31 0 -31 90v8q0 98 22 98l31 -8q74 195 74 381l-240 -115l-67 -53h-23q-55 0 -141 145zM462 1587v17q0 25 11 26h30l4 -4h5q-12 -16 -13 -33v-14q8 -33 39 -33q18 0 47 74 q88 107 180 107q53 0 191 -91q49 -23 86 -22q68 0 145 113h9v-11q-106 -170 -209 -170q-49 0 -136 64q-61 31 -116 31h-2q-115 0 -152 -99q-18 -23 -37 -22h-6q-76 14 -76 67zM583 741h39q68 94 68 160l-8 22q-90 -12 -90 -67l8 -9v-14l-17 -84v-8zM602 1552v9q46 63 118 63 h15q68 0 170 -84l43 -4h12q84 0 164 64h4v-2q-55 -86 -199 -125l-37 -7q-109 33 -127 68q-53 33 -98 35z" />
<glyph unicode="&#xe4;" horiz-adv-x="1169" d="M-8 571v15q25 23 67 22l420 137q14 43 15 191q0 166 -46 266l-8 60l8 8h9q14 -14 67 -15q96 -53 96 -137l-6 -39h6q72 70 113 70h37q84 0 84 -92q0 -145 -129 -258v-8l76 8h75q0 393 29 510l-14 14q-63 -18 -172 -84q-29 -14 -82 -14h-23l-45 37q170 190 240 190h51 q150 0 203 -168l8 -22q-45 -131 -61 -289h-7l7 -37l-15 -62l8 -8l-8 -37v-22l8 6h232q82 0 135 -151q0 -23 -31 -23l-313 31q-25 -8 -31 -31l15 -137l-7 -23l15 -37l14 -387v-16q0 -59 -37 -76q-375 315 -375 410l9 8h8q217 -121 246 -121h8v14h8l-8 93v135l-15 84v84 q-293 -39 -292 -84v-8l8 -37l-17 -68l9 -31l-15 -30l6 -9q-49 -248 -163 -364l-23 -14h-22q-31 0 -31 90v8q0 98 22 98l31 -8q74 195 74 381l-240 -115l-67 -53h-23q-55 0 -141 145zM473 1630v39q0 68 61 113h17v-8l-6 -27v-4h6q49 53 88 53h4q59 0 110 -59v-17l-38 -123 q16 -4 16 -26q0 -23 -109 -27l-6 4q-61 0 -61 -30q0 -8 -21 -15q-45 0 -61 127zM555 1630q72 10 72 80l-72 -45v-4l6 -4v-4l-6 -19v-4zM575 768h39q68 94 68 160l-8 22q-90 -12 -90 -67l8 -9v-14l-17 -84v-8zM819 1636v39q0 68 61 113h17v-8l-6 -27v-4h6q49 53 88 53h4 q59 0 111 -59v-17l-39 -122q16 -4 16 -27t-108 -27l-7 4q-61 0 -61 -30q0 -8 -21 -15q-45 0 -61 127zM901 1636q72 10 72 80l-72 -45v-4l6 -4v-4l-6 -19v-4z" />
<glyph unicode="&#xe5;" horiz-adv-x="1214" d="M10 606v15q25 23 67 22l420 137q14 43 15 191q0 166 -46 266l-8 60l8 8h9q14 -14 67 -15q96 -53 96 -137l-6 -39h6q72 70 113 70h37q84 0 84 -92q0 -145 -129 -258v-8l76 8h75q0 393 29 510l-14 14q-63 -18 -172 -84q-29 -14 -82 -14h-23l-45 37q170 190 240 190h51 q150 0 203 -168l8 -22q-45 -131 -61 -289h-7l7 -37l-15 -62l8 -8l-8 -37v-22l8 6h232q82 0 135 -151q0 -23 -31 -23l-313 31q-25 -8 -31 -31l15 -137l-7 -23l15 -37l14 -387v-16q0 -59 -37 -76q-375 315 -375 410l9 8h8q217 -121 246 -121h8v14h8l-8 93v135l-15 84v84 q-293 -39 -292 -84v-8l8 -37l-17 -68l9 -31l-15 -30l6 -9q-49 -248 -163 -364l-23 -14h-22q-31 0 -31 90v8q0 98 22 98l31 -8q74 195 74 381l-240 -115l-67 -53h-23q-55 0 -141 145zM301 1509q0 72 51.5 123t122.5 51q70 0 121 -51.5t139 57.5q-88 -254 -137 -303t-123 -49 q-72 0 -123 49t-51 123zM379 1509q0 -41 27.5 -68.5t68.5 -27.5t67.5 26.5t26.5 69.5q0 39 -12 51t-82 45q-41 0 -68.5 -27.5t-27.5 -68.5zM593 803h39q68 94 68 160l-8 22q-90 -12 -90 -67l8 -9v-14l-17 -84v-8z" />
<glyph unicode="&#xe6;" horiz-adv-x="2129" d="M4 571v15q25 23 67 22l420 137q14 43 15 191q0 166 -46 266l-8 60l8 8h9q14 -14 67 -15q96 -53 96 -137l-6 -39h6q72 70 113 70h37q84 0 84 -92q0 -145 -129 -258v-8l76 8h75q0 393 29 510l-14 14q-63 -18 -172 -84q-29 -14 -82 -14h-23l-45 37q170 190 240 190h51 q150 0 203 -168l8 -22q-45 -131 -61 -289h-7l7 -37l-15 -62l8 -8l-8 -37v-22l8 6h232q82 0 135 -151q0 -23 -31 -23l-313 31q-25 -8 -31 -31l15 -137l-7 -23l15 -37l14 -387v-16q0 -59 -37 -76q-375 315 -375 410l9 8h8q217 -121 246 -121h8v14h8l-8 93v135l-15 84v84 q-293 -39 -292 -84v-8l8 -37l-17 -68l9 -31l-15 -30l6 -9q-49 -248 -163 -364l-23 -14h-22q-31 0 -31 90v8q0 98 22 98l31 -8q74 195 74 381l-240 -115l-67 -53h-23q-55 0 -141 145zM587 768h39q68 94 68 160l-8 22q-90 -12 -90 -67l8 -9v-14l-17 -84v-8zM940 465 q0 178 70 178q236 301 338 776q-53 31 -53 78l26 19h60q109 0 166 -80v-27q0 -45 -97 -229l312 -273q299 -139 372 -229v-27q-8 -27 -51 -26h-35q-305 0 -372 141q-199 272 -234 299q-41 0 -129 -211q-25 -35 -43 -35q111 -80 111 -106l10 -27l-70 -264v-35h9 q209 137 208 352l9 9h16q113 -41 113 -142v-34q-47 -162 -355 -353l-8 -10v-8q14 -115 164 -115h27q233 0 233 88q16 0 43 98l-8 9l8 61v72h8q84 -78 148 -328v-88q0 -66 -477 -88q-201 0 -250 150l-35 133l-27 -19h-86l-43 19v16q29 33 164 98l10 43l8 318h-8 q-111 -166 -200 -230h-25z" />
<glyph unicode="&#xe7;" horiz-adv-x="888" d="M39 317l82 666q-82 143 -82 272q0 119 145 119l-16 -102q131 -182 131 -256q293 35 309 90l-176 67l12 31h17q336 -12 346 -123q0 -115 -305 -239l-183 -17l-16 -18l-16 -70l-45 -453h16l405 275q12 86 50 86q72 -119 71 -209q-397 -256 -422 -340l-112 -137 q-211 51 -211 358zM57 -145q59 70 92 108q57 68 86 113h55l-59 -84q76 -43 104.5 -71.5t28.5 -51.5q0 -43 -207 -266l-55 39q90 96 90 121q0 23 -35 45t-100 47z" />
<glyph unicode="&#xe8;" horiz-adv-x="1218" d="M8 494q0 178 70 178q236 301 338 776q-53 31 -53 78l26 19h60q109 0 166 -80v-27q0 -45 -97 -229l312 -273q299 -139 372 -229v-27q-8 -27 -51 -26h-35q-305 0 -372 141q-199 272 -234 299q-41 0 -129 -211q-25 -35 -43 -35q111 -80 111 -106l10 -27l-70 -264v-35h9 q209 137 208 352l9 9h16q113 -41 113 -142v-34q-47 -162 -355 -353l-8 -10v-8q14 -115 164 -115h27q233 0 233 88q16 0 43 98l-8 9l8 61v72h8q84 -78 148 -328v-88q0 -66 -477 -88q-201 0 -250 150l-35 133l-27 -19h-86l-43 19v16q29 33 164 98l10 43l8 318h-8 q-111 -166 -200 -230h-25zM25 1526v12q0 27 39 33q242 -49 242 -232v-65l-19 -23h-20z" />
<glyph unicode="&#xe9;" horiz-adv-x="1159" d="M-15 547q0 178 70 178q236 301 338 776q-53 31 -53 78l26 19h60q109 0 166 -80v-27q0 -45 -97 -229l312 -273q299 -139 372 -229v-27q-8 -27 -51 -26h-35q-305 0 -372 141q-199 272 -234 299q-41 0 -129 -211q-25 -35 -43 -35q111 -80 111 -106l10 -27l-70 -264v-35h9 q209 137 208 352l9 9h16q113 -41 113 -142v-34q-47 -162 -355 -353l-8 -10v-8q14 -115 164 -115h27q233 0 233 88q16 0 43 98l-8 9l8 61v72h8q84 -78 148 -328v-88q0 -66 -477 -88q-201 0 -250 150l-35 133l-27 -19h-86l-43 19v16q29 33 164 98l10 43l8 318h-8 q-111 -166 -200 -230h-25zM688 1343v62q0 168 269 213q43 -4 43 -31v-10l-269 -254h-22z" />
<glyph unicode="&#xea;" horiz-adv-x="1230" d="M10 446q0 178 70 178q236 301 338 776q-53 31 -53 78l26 19h60q109 0 166 -80v-27q0 -45 -97 -229l312 -273q299 -139 372 -229v-27q-8 -27 -51 -26h-35q-305 0 -372 141q-199 272 -234 299q-41 0 -129 -211q-25 -35 -43 -35q111 -80 111 -106l10 -27l-70 -264v-35h9 q209 137 208 352l9 9h16q113 -41 113 -142v-34q-47 -162 -355 -353l-8 -10v-8q14 -115 164 -115h27q233 0 233 88q16 0 43 98l-8 9l8 61v72h8q84 -78 148 -328v-88q0 -66 -477 -88q-201 0 -250 150l-35 133l-27 -19h-86l-43 19v16q29 33 164 98l10 43l8 318h-8 q-111 -166 -200 -230h-25zM49 1767q213 23 213 181l131 40v-8h25q336 -88 335 -245h-8l17 -41q-16 -37 -33 -41h-16q-51 0 -222 180l-82 49h-24q-41 -180 -180 -180q-127 0 -156 65z" />
<glyph unicode="&#xeb;" horiz-adv-x="1234" d="M8 438q0 178 70 178q236 301 338 776q-53 31 -53 78l26 19h60q109 0 166 -80v-27q0 -45 -97 -229l312 -273q299 -139 372 -229v-27q-8 -27 -51 -26h-35q-305 0 -372 141q-199 272 -234 299q-41 0 -129 -211q-25 -35 -43 -35q111 -80 111 -106l10 -27l-70 -264v-35h9 q209 137 208 352l9 9h16q113 -41 113 -142v-34q-47 -162 -355 -353l-8 -10v-8q14 -115 164 -115h27q233 0 233 88q16 0 43 98l-8 9l8 61v72h8q84 -78 148 -328v-88q0 -66 -477 -88q-201 0 -250 150l-35 133l-27 -19h-86l-43 19v16q29 33 164 98l10 43l8 318h-8 q-111 -166 -200 -230h-25zM277 1671v39q0 68 61 113h17v-8l-6 -27v-4h6q49 53 88 53h4q59 0 110 -59v-17l-38 -123q16 -4 16 -26q0 -23 -109 -27l-6 4q-61 0 -61 -30q0 -8 -21 -15q-45 0 -61 127zM359 1671q72 10 72 80l-72 -45v-4l6 -4v-4l-6 -19v-4zM623 1677v39 q0 68 61 113h17v-8l-6 -27v-4h6q49 53 88 53h4q59 0 111 -59v-17l-39 -122q16 -4 16 -27t-108 -27l-7 4q-61 0 -61 -30q0 -8 -21 -15q-45 0 -61 127zM705 1677q72 10 72 80l-72 -45v-4l6 -4v-4l-6 -19v-4z" />
<glyph unicode="&#xec;" horiz-adv-x="1175" d="M0 168q260 82 364 82v12q-35 168 -41 234q-47 -68 -100 -68q-61 0 -62 162q12 178 62 178q12 -70 51 -70q86 0 106 365h-12l-63 -14q-104 123 -113 217l12 14l64 -14h24l478 123h12q35 0 125 -123q0 -53 -162 -95l12 -55l-6 -158l12 -69l-38 -150v-26q78 74 114 190 l-39 41l39 41h13q86 0 149 -164q-35 -131 -262 -352l-51 -82l-11 -96l314 26q57 0 164 -163v-13q-37 -70 -76 -69l-313 55h-89q-205 0 -555 -80h-12q-111 -2 -110 121zM180 1626v12q0 27 39 33q242 -49 242 -232v-65l-19 -23h-20zM475 510q125 0 125 217v82h-13 q0 -41 -100 -178v-13l12 -14v-14zM475 821l125 41l-7 254l-24 29q0 -33 -64 -41l7 -174q0 -45 -37 -94v-15zM477 276l12 15h76l10 137q-88 -32 -88 -55z" />
<glyph unicode="&#xed;" horiz-adv-x="1167" d="M0 168q260 82 364 82v12q-35 168 -41 234q-47 -68 -100 -68q-61 0 -62 162q12 178 62 178q12 -70 51 -70q86 0 106 365h-12l-63 -14q-104 123 -113 217l12 14l64 -14h24l478 123h12q35 0 125 -123q0 -53 -162 -95l12 -55l-6 -158l12 -69l-38 -150v-26q78 74 114 190 l-39 41l39 41h13q86 0 149 -164q-35 -131 -262 -352l-51 -82l-11 -96l314 26q57 0 164 -163v-13q-37 -70 -76 -69l-313 55h-89q-205 0 -555 -80h-12q-111 -2 -110 121zM458 1370v62q0 168 269 213q43 -4 43 -31v-10l-269 -254h-22zM475 510q125 0 125 217v82h-13 q0 -41 -100 -178v-13l12 -14v-14zM475 821l125 41l-7 254l-24 29q0 -33 -64 -41l7 -174q0 -45 -37 -94v-15zM477 276l12 15h76l10 137q-88 -32 -88 -55z" />
<glyph unicode="&#xee;" horiz-adv-x="1167" d="M0 168q260 82 364 82v12q-35 168 -41 234q-47 -68 -100 -68q-61 0 -62 162q12 178 62 178q12 -70 51 -70q86 0 106 365h-12l-63 -14q-104 123 -113 217l12 14l64 -14h24l478 123h12q35 0 125 -123q0 -53 -162 -95l12 -55l-6 -158l12 -69l-38 -150v-26q78 74 114 190 l-39 41l39 41h13q86 0 149 -164q-35 -131 -262 -352l-51 -82l-11 -96l314 26q57 0 164 -163v-13q-37 -70 -76 -69l-313 55h-89q-205 0 -555 -80h-12q-111 -2 -110 121zM199 1489q213 23 213 181l131 40v-8h25q336 -88 335 -245h-8l17 -41q-16 -37 -33 -41h-16 q-51 0 -222 180l-82 49h-24q-41 -180 -180 -180q-127 0 -156 65zM475 510q125 0 125 217v82h-13q0 -41 -100 -178v-13l12 -14v-14zM475 821l125 41l-7 254l-24 29q0 -33 -64 -41l7 -174q0 -45 -37 -94v-15zM477 276l12 15h76l10 137q-88 -32 -88 -55z" />
<glyph unicode="&#xef;" horiz-adv-x="1202" d="M0 168q260 82 364 82v12q-35 168 -41 234q-47 -68 -100 -68q-61 0 -62 162q12 178 62 178q12 -70 51 -70q86 0 106 365h-12l-63 -14q-104 123 -113 217l12 14l64 -14h24l478 123h12q35 0 125 -123q0 -53 -162 -95l12 -55l-6 -158l12 -69l-38 -150v-26q78 74 114 190 l-39 41l39 41h13q86 0 149 -164q-35 -131 -262 -352l-51 -82l-11 -96l314 26q57 0 164 -163v-13q-37 -70 -76 -69l-313 55h-89q-205 0 -555 -80h-12q-111 -2 -110 121zM199 1538v39q0 68 61 113h17v-8l-6 -27v-4h6q49 53 88 53h4q59 0 110 -59v-17l-38 -123q16 -4 16 -26 q0 -23 -109 -27l-6 4q-61 0 -61 -30q0 -8 -21 -15q-45 0 -61 127zM281 1538q72 10 72 80l-72 -45v-4l6 -4v-4l-6 -19v-4zM475 510q125 0 125 217v82h-13q0 -41 -100 -178v-13l12 -14v-14zM475 821l125 41l-7 254l-24 29q0 -33 -64 -41l7 -174q0 -45 -37 -94v-15zM477 276 l12 15h76l10 137q-88 -32 -88 -55zM545 1544v39q0 68 61 113h17v-8l-6 -27v-4h6q49 53 88 53h4q59 0 111 -59v-17l-39 -122q16 -4 16 -27t-108 -27l-7 4q-61 0 -61 -30q0 -8 -21 -15q-45 0 -61 127zM627 1544q72 10 72 80l-72 -45v-4l6 -4v-4l-6 -19v-4z" />
<glyph unicode="&#xf0;" horiz-adv-x="1212" d="M25 10l200 402q229 553 230 686h-15l-200 -43l-29 43q178 244 389 243q0 43 215 43q152 -49 272 -215q-57 -399 -229 -944q-145 -219 -258 -229q-39 25 -188 330l-15 14h-14q-178 -358 -315 -358h-15zM70 674q-47 33 0 33q29 0 73 90q138 131 281 131q82 0 297 -111 q76 -29 133 -29q104 0 227 140h13v-13q-166 -209 -326 -208q-76 0 -211 77q-94 37 -180 37h-4q-178 0 -236 -121q-29 -27 -57 -26h-10zM170 715v10q71 78 184 78h23q104 0 264 -105l68 -4h18q131 0 254 78h6v-2q-86 -106 -307 -154l-57 -8q-170 41 -199 84q-82 39 -154 41z M469 555q68 -152 145 -229h15q92 74 250 680l-21 178q-176 0 -258 -301z" />
<glyph unicode="&#xf1;" horiz-adv-x="1179" d="M-33 884l12 58l13 6q49 0 110 123q-2 -2 -6 -4l82 161v27l8 35l-18 106l28 9q82 0 175 -132v-18q0 -31 -37 -70q23 -27 121 -53l28 -26h19q25 78 166 202q14 43 65 43h18q14 0 130 -131l-103 -534v-62l-8 -10l8 -8l-18 -105v-80l-9 -34q27 -166 166 -166h37v26 q-29 145 -92 316l8 8h19q137 -156 260 -350q74 -51 74 -107q0 -113 -269 -112q-174 0 -278 131q-92 164 -92 323l47 572h-19q-74 -18 -74 -123q-92 -147 -92 -492l-65 -192q-141 -238 -221 -238h-19q-29 8 -28 53v9q0 176 55 176q94 0 176 649v166l-29 61h-8 q-20 -78 -158 -176h-18v-8l33 -31zM53 1589v17q0 25 11 26h30l4 -4h5q-12 -16 -13 -33v-14q8 -33 39 -33q18 0 47 74q88 107 180 107q53 0 191 -91q49 -23 86 -22q68 0 145 113h9v-11q-106 -170 -209 -170q-49 0 -136 64q-61 31 -116 31h-2q-115 0 -152 -99q-18 -23 -37 -22 h-6q-76 14 -76 67zM193 1554v9q46 63 118 63h15q68 0 170 -84l43 -4h12q84 0 164 64h4v-2q-55 -86 -199 -125l-37 -7q-109 33 -127 68q-53 33 -98 35z" />
<glyph unicode="&#xf2;" horiz-adv-x="1056" d="M-2 426q0 168 147 746l11 12h12q113 -129 112 -233l-102 -195h23q250 88 249 133l11 62v61l-56 -12l-12 12v12l23 87l-68 -25h-10l-45 49q147 232 305 232h90q315 -100 315 -515l13 -243q0 -659 -305 -660q-139 20 -283 86l-68 -24q-328 78 -327 243q-23 0 -35 172z M110 414q0 -123 136 -209v13q-100 156 -101 208h23l135 -135q18 0 80 160q-68 14 -68 35v12q0 23 101 62l12 110q-103 -74 -158 -74l-102 25q-35 -43 -58 -207zM238 1680v12q0 27 39 33q242 -49 242 -232v-65l-19 -23h-20zM393 242l23 -24h12l33 24h22v-24l-10 -13v-12 q57 -37 113 -37h67q160 25 160 135v13q-51 0 -260 122q-37 -6 -92 -122l-68 -50v-12zM508 1123h33q80 0 79 -86v-49q147 -57 148 -158q0 -49 -170 -86l-45 -172q129 0 270 -74h12v367q-25 342 -102 342h-22l-203 -60v-24z" />
<glyph unicode="&#xf3;" horiz-adv-x="1067" d="M-10 360q0 168 147 746l11 12h12q113 -129 112 -233l-102 -195h23q250 88 249 133l11 62v61l-56 -12l-12 12v12l23 87l-68 -25h-10l-45 49q147 232 305 232h90q315 -100 315 -515l13 -243q0 -659 -305 -660q-139 20 -283 86l-68 -24q-328 78 -327 243q-23 0 -35 172z M102 348q0 -123 136 -209v13q-100 156 -101 208h23l135 -135q18 0 80 160q-68 14 -68 35v12q0 23 101 62l12 110q-103 -74 -158 -74l-102 25q-35 -43 -58 -207zM385 176l23 -24h12l33 24h22v-24l-10 -13v-12q57 -37 113 -37h67q160 25 160 135v13q-51 0 -260 122 q-37 -6 -92 -122l-68 -50v-12zM500 1057h33q80 0 79 -86v-49q147 -57 148 -158q0 -49 -170 -86l-45 -172q129 0 270 -74h12v367q-25 342 -102 342h-22l-203 -60v-24zM624 1460v62q0 168 269 213q43 -4 43 -31v-10l-269 -254h-22z" />
<glyph unicode="&#xf4;" horiz-adv-x="1048" d="M17 456q0 168 147 746l11 12h12q113 -129 112 -233l-102 -195h23q250 88 249 133l11 62v61l-56 -12l-12 12v12l23 87l-68 -25h-10l-45 49q147 232 305 232h90q315 -100 315 -515l13 -243q0 -659 -305 -660q-139 20 -283 86l-68 -24q-328 78 -327 243q-23 0 -35 172z M129 444q0 -123 136 -209v13q-100 156 -101 208h23l135 -135q18 0 80 160q-68 14 -68 35v12q0 23 101 62l12 110q-103 -74 -158 -74l-102 25q-35 -43 -58 -207zM174 1489q213 23 213 181l131 40v-8h25q336 -88 335 -245h-8l17 -41q-16 -37 -33 -41h-16q-51 0 -222 180 l-82 49h-24q-41 -180 -180 -180q-127 0 -156 65zM412 272l23 -24h12l33 24h22v-24l-10 -13v-12q57 -37 113 -37h67q160 25 160 135v13q-51 0 -260 122q-37 -6 -92 -122l-68 -50v-12zM527 1153h33q80 0 79 -86v-49q147 -57 148 -158q0 -49 -170 -86l-45 -172q129 0 270 -74 h12v367q-25 342 -102 342h-22l-203 -60v-24z" />
<glyph unicode="&#xf5;" horiz-adv-x="1120" d="M31 505q0 168 147 746l11 12h12q113 -129 112 -233l-102 -195h23q250 88 249 133l11 62v61l-56 -12l-12 12v12l23 87l-68 -25h-10l-45 49q147 232 305 232h90q315 -100 315 -515l13 -243q0 -659 -305 -660q-139 20 -283 86l-68 -24q-328 78 -327 243q-23 0 -35 172z M143 493q0 -123 136 -209v13q-100 156 -101 208h23l135 -135q18 0 80 160q-68 14 -68 35v12q0 23 101 62l12 110q-103 -74 -158 -74l-102 25q-35 -43 -58 -207zM252 1605v17q0 25 11 26h30l4 -4h5q-12 -16 -13 -33v-14q8 -33 39 -33q18 0 47 74q88 107 180 107q53 0 191 -91 q49 -23 86 -22q68 0 145 113h9v-11q-106 -170 -209 -170q-49 0 -136 64q-61 31 -116 31h-2q-115 0 -152 -99q-18 -23 -37 -22h-6q-76 14 -76 67zM392 1570v9q46 63 118 63h15q68 0 170 -84l43 -4h12q84 0 164 64h4v-2q-55 -86 -199 -125l-37 -7q-109 33 -127 68 q-53 33 -98 35zM426 321l23 -24h12l33 24h22v-24l-10 -13v-12q57 -37 113 -37h67q160 25 160 135v13q-51 0 -260 122q-37 -6 -92 -122l-68 -50v-12zM541 1202h33q80 0 79 -86v-49q147 -57 148 -158q0 -49 -170 -86l-45 -172q129 0 270 -74h12v367q-25 342 -102 342h-22 l-203 -60v-24z" />
<glyph unicode="&#xf6;" horiz-adv-x="1089" d="M29 485q0 168 147 746l11 12h12q113 -129 112 -233l-102 -195h23q250 88 249 133l11 62v61l-56 -12l-12 12v12l23 87l-68 -25h-10l-45 49q147 232 305 232h90q315 -100 315 -515l13 -243q0 -659 -305 -660q-139 20 -283 86l-68 -24q-328 78 -327 243q-23 0 -35 172z M141 473q0 -123 136 -209v13q-100 156 -101 208h23l135 -135q18 0 80 160q-68 14 -68 35v12q0 23 101 62l12 110q-103 -74 -158 -74l-102 25q-35 -43 -58 -207zM283 1608v39q0 68 61 113h17v-8l-6 -27v-4h6q49 53 88 53h4q59 0 110 -59v-17l-38 -123q16 -4 16 -26 q0 -23 -109 -27l-6 4q-61 0 -61 -30q0 -8 -21 -15q-45 0 -61 127zM365 1608q72 10 72 80l-72 -45v-4l6 -4v-4l-6 -19v-4zM424 301l23 -24h12l33 24h22v-24l-10 -13v-12q57 -37 113 -37h67q160 25 160 135v13q-51 0 -260 122q-37 -6 -92 -122l-68 -50v-12zM539 1182h33 q80 0 79 -86v-49q147 -57 148 -158q0 -49 -170 -86l-45 -172q129 0 270 -74h12v367q-25 342 -102 342h-22l-203 -60v-24zM629 1614v39q0 68 61 113h17v-8l-6 -27v-4h6q49 53 88 53h4q59 0 111 -59v-17l-39 -122q16 -4 16 -27t-108 -27l-7 4q-61 0 -61 -30q0 -8 -21 -15 q-45 0 -61 127zM711 1614q72 10 72 80l-72 -45v-4l6 -4v-4l-6 -19v-4z" />
<glyph unicode="&#xf7;" horiz-adv-x="1153" d="M111 676v12q0 35 327 139q201 47 310 47h122l41 -12l41 12q94 0 144 -129q-18 -82 -92 -81h-41l-164 12l-82 -23l-10 11v12l81 94h-10q-408 -143 -452 -188q0 -23 -72 -23q-96 0 -143 117zM416 1063v39q0 68 61 113h17v-9l-6 -26v-4h6q49 53 88 53h4q59 0 111 -59v-17 l-39 -123q16 -4 16 -26q0 -23 -109 -27l-6 4q-61 0 -61 -31q0 -8 -21 -14q-45 0 -61 127zM498 365v39q0 68 61 113h17v-9l-6 -26v-4h6q49 53 88 53h4q59 0 111 -59v-17l-39 -123q16 -4 16 -26q0 -23 -109 -27l-6 4q-61 0 -61 -31q0 -8 -21 -14q-45 0 -61 127zM498 1063 q72 10 72 80l-72 -45v-4l6 -4v-4l-6 -19v-4zM580 365q72 10 72 80l-72 -45v-4l6 -4v-4l-6 -19v-4z" />
<glyph unicode="&#xf8;" horiz-adv-x="1064" d="M21 464q0 168 147 746l11 12h12q113 -129 112 -233l-102 -195h23q250 88 249 133l11 62v61l-56 -12l-12 12v12l23 87l-68 -25h-10l-45 49q147 232 305 232h90q315 -100 315 -515l13 -243q0 -659 -305 -660q-139 20 -283 86l-68 -24q-328 78 -327 243q-23 0 -35 172z M106 86v25q233 287 349 514q166 307 274 688v49h-10l-11 -12h-8l-10 12v25q39 73 96 73h9q55 0 94 -98v-24q0 -119 -131 -367q-231 -547 -349 -713q-188 -209 -284 -209zM133 452q0 -123 136 -209v13q-100 156 -101 208h23l135 -135q18 0 80 160q-68 14 -68 35v12 q0 23 101 62l12 110q-103 -74 -158 -74l-102 25q-35 -43 -58 -207zM416 280l23 -24h12l33 24h22v-24l-10 -13v-12q57 -37 113 -37h67q160 25 160 135v13q-51 0 -260 122q-37 -6 -92 -122l-68 -50v-12zM531 1161h33q80 0 79 -86v-49q147 -57 148 -158q0 -49 -170 -86 l-45 -172q129 0 270 -74h12v367q-25 342 -102 342h-22l-203 -60v-24z" />
<glyph unicode="&#xf9;" horiz-adv-x="1226" d="M29 170q31 16 123 35q57 33 221 57q-57 92 -57 189h-17q-68 -82 -114 -82q-82 0 -82 155q0 68 49 189h16l33 -33l-8 -49h8q131 20 131 131q45 319 123 319l8 9l25 -50l-17 -73v-107l-24 -98h8l147 65h25l16 -16v-16q-180 -158 -180 -189v-33l8 -41h-8l8 -24l-8 -74h8 q213 76 213 115l17 491l-8 115h-9l-49 -8q-16 33 -16 90v8q35 82 90 82h8q90 0 131 -147v-369l-16 -90v-16q33 0 139 188v25q-41 0 -41 16v16q20 41 74 41q59 0 139 -139v-8q0 -102 -303 -393q0 -109 -41 -148l16 -16h41q260 -61 332 -170l23 -45q20 -53 -21 -84 q-178 127 -456 127h-74q-389 0 -492 -142q-109 90 -139 197zM270 1469v12q0 27 39 33q242 -49 242 -232v-65l-19 -23h-20zM471 279l156 16h74l-8 98q-57 -41 -205 -41q-1 -39 -17 -57v-16z" />
<glyph unicode="&#xfa;" horiz-adv-x="1163" d="M-6 170q31 16 123 35q57 33 221 57q-57 92 -57 189h-17q-68 -82 -114 -82q-82 0 -82 155q0 68 49 189h16l33 -33l-8 -49h8q131 20 131 131q45 319 123 319l8 9l25 -50l-17 -73v-107l-24 -98h8l147 65h25l16 -16v-16q-180 -158 -180 -189v-33l8 -41h-8l8 -24l-8 -74h8 q213 76 213 115l17 491l-8 115h-9l-49 -8q-16 33 -16 90v8q35 82 90 82h8q90 0 131 -147v-369l-16 -90v-16q33 0 139 188v25q-41 0 -41 16v16q20 41 74 41q59 0 139 -139v-8q0 -102 -303 -393q0 -109 -41 -148l16 -16h41q260 -61 332 -170l23 -45q20 -53 -21 -84 q-178 127 -456 127h-74q-389 0 -492 -142q-109 90 -139 197zM436 279l156 16h74l-8 98q-57 -41 -205 -41q-1 -39 -17 -57v-16zM489 1319v62q0 168 269 213q43 -4 43 -31v-10l-269 -254h-22z" />
<glyph unicode="&#xfb;" horiz-adv-x="1226" d="M10 174q31 16 123 35q57 33 221 57q-57 92 -57 189h-17q-68 -82 -114 -82q-82 0 -82 155q0 68 49 189h16l33 -33l-8 -49h8q131 20 131 131q45 319 123 319l8 9l25 -50l-17 -73v-107l-24 -98h8l147 65h25l16 -16v-16q-180 -158 -180 -189v-33l8 -41h-8l8 -24l-8 -74h8 q213 76 213 115l17 491l-8 115h-9l-49 -8q-16 33 -16 90v8q35 82 90 82h8q90 0 131 -147v-369l-16 -90v-16q33 0 139 188v25q-41 0 -41 16v16q20 41 74 41q59 0 139 -139v-8q0 -102 -303 -393q0 -109 -41 -148l16 -16h41q260 -61 332 -170l23 -45q20 -53 -21 -84 q-178 127 -456 127h-74q-389 0 -492 -142q-109 90 -139 197zM320 1419q213 23 213 181l131 40v-8h25q336 -88 335 -245h-8l17 -41q-16 -37 -33 -41h-16q-51 0 -222 180l-82 49h-24q-41 -180 -180 -180q-127 0 -156 65zM452 283l156 16h74l-8 98q-57 -41 -205 -41 q-1 -39 -17 -57v-16z" />
<glyph unicode="&#xfc;" horiz-adv-x="1216" d="M29 170q31 16 123 35q57 33 221 57q-57 92 -57 189h-17q-68 -82 -114 -82q-82 0 -82 155q0 68 49 189h16l33 -33l-8 -49h8q131 20 131 131q45 319 123 319l8 9l25 -50l-17 -73v-107l-24 -98h8l147 65h25l16 -16v-16q-180 -158 -180 -189v-33l8 -41h-8l8 -24l-8 -74h8 q213 76 213 115l17 491l-8 115h-9l-49 -8q-16 33 -16 90v8q35 82 90 82h8q90 0 131 -147v-369l-16 -90v-16q33 0 139 188v25q-41 0 -41 16v16q20 41 74 41q59 0 139 -139v-8q0 -102 -303 -393q0 -109 -41 -148l16 -16h41q260 -61 332 -170l23 -45q20 -53 -21 -84 q-178 127 -456 127h-74q-389 0 -492 -142q-109 90 -139 197zM285 1468v39q0 68 61 113h17v-8l-6 -27v-4h6q49 53 88 53h4q59 0 110 -59v-17l-38 -123q16 -4 16 -26q0 -23 -109 -27l-6 4q-61 0 -61 -30q0 -8 -21 -15q-45 0 -61 127zM367 1468q72 10 72 80l-72 -45v-4l6 -4v-4 l-6 -19v-4zM471 279l156 16h74l-8 98q-57 -41 -205 -41q-1 -39 -17 -57v-16zM631 1474v39q0 68 61 113h17v-8l-6 -27v-4h6q49 53 88 53h4q59 0 111 -59v-17l-39 -122q16 -4 16 -27t-108 -27l-7 4q-61 0 -61 -30q0 -8 -21 -15q-45 0 -61 127zM713 1474q72 10 72 80l-72 -45 v-4l6 -4v-4l-6 -19v-4z" />
<glyph unicode="&#xfd;" horiz-adv-x="954" d="M23 1112v14q57 84 143 84h29q270 -90 270 -196v-58h14q203 205 215 393h-14l-86 -14q-57 23 -57 43v29q-1 35 114 55h70q125 0 201 -168q-35 -168 -314 -407l-14 -41l29 -84v-183l-15 -71l15 -84v-281q-23 -154 -72 -153h-43q-186 143 -186 280l100 -29l29 84v281 q0 236 -158 338q-66 111 -227 111zM278 1327v62q0 168 269 213q43 -4 43 -31v-10l-269 -254h-22z" />
<glyph unicode="&#xfe;" horiz-adv-x="1034" d="M29 1016l102 24l16 349l185 192l-4 -410v-65q188 66 317 65h45q227 0 318 -313v-33q0 -231 -332 -544l-121 -50q-137 82 -197 82v-16q-43 -594 -120 -594h-31q-39 0 -92 907l-68 68zM262 479l96 -24h154q250 139 250 579h-21q-422 -67 -422 -145v-314z" />
<glyph unicode="&#xff;" horiz-adv-x="927" d="M11 1112v14q57 84 143 84h29q270 -90 270 -196v-58h14q203 205 215 393h-14l-86 -14q-57 23 -57 43v29q-1 35 114 55h70q125 0 201 -168q-35 -168 -314 -407l-14 -41l29 -84v-183l-15 -71l15 -84v-281q-23 -154 -72 -153h-43q-186 143 -186 280l100 -29l29 84v281 q0 236 -158 338q-66 111 -227 111zM201 1646v39q0 68 61 113h17v-8l-6 -27v-4h6q49 53 88 53h4q59 0 110 -59v-17l-38 -123q16 -4 16 -26q0 -23 -109 -27l-6 4q-61 0 -61 -30q0 -8 -21 -15q-45 0 -61 127zM283 1646q72 10 72 80l-72 -45v-4l6 -4v-4l-6 -19v-4zM547 1652v39 q0 68 61 113h17v-8l-6 -27v-4h6q49 53 88 53h4q59 0 111 -59v-17l-39 -122q16 -4 16 -27t-108 -27l-7 4q-61 0 -61 -30q0 -8 -21 -15q-45 0 -61 127zM629 1652q72 10 72 80l-72 -45v-4l6 -4v-4l-6 -19v-4z" />
<glyph unicode="&#x152;" horiz-adv-x="1812" d="M-39 380q0 168 147 746l11 12h12q113 -129 112 -233l-102 -195h23q250 88 249 133l11 62v61l-56 -12l-12 12v12l23 87l-68 -25h-10l-45 49q147 232 305 232h90q315 -100 315 -515l13 -243q0 -659 -305 -660q-139 20 -283 86l-68 -24q-328 78 -327 243q-23 0 -35 172z M73 368q0 -123 136 -209v13q-100 156 -101 208h23l135 -135q18 0 80 160q-68 14 -68 35v12q0 23 101 62l12 110q-103 -74 -158 -74l-102 25q-35 -43 -58 -207zM356 196l23 -24h12l33 24h22v-24l-10 -13v-12q57 -37 113 -37h67q160 25 160 135v13q-51 0 -260 122 q-37 -6 -92 -122l-68 -50v-12zM471 1077h33q80 0 79 -86v-49q147 -57 148 -158q0 -49 -170 -86l-45 -172q129 0 270 -74h12v367q-25 342 -102 342h-22l-203 -60v-24zM587 440q0 178 70 178q236 301 338 776q-53 31 -53 78l26 19h60q109 0 166 -80v-27q0 -45 -97 -229 l312 -273q299 -139 372 -229v-27q-8 -27 -51 -26h-35q-305 0 -372 141q-199 272 -234 299q-41 0 -129 -211q-25 -35 -43 -35q111 -80 111 -106l10 -27l-70 -264v-35h9q209 137 208 352l9 9h16q113 -41 113 -142v-34q-47 -162 -355 -353l-8 -10v-8q14 -115 164 -115h27 q233 0 233 88q16 0 43 98l-8 9l8 61v72h8q84 -78 148 -328v-88q0 -66 -477 -88q-201 0 -250 150l-35 133l-27 -19h-86l-43 19v16q29 33 164 98l10 43l8 318h-8q-111 -166 -200 -230h-25z" />
<glyph unicode="&#x153;" horiz-adv-x="1859" d="M29 466q0 168 147 746l11 12h12q113 -129 112 -233l-102 -195h23q250 88 249 133l11 62v61l-56 -12l-12 12v12l23 87l-68 -25h-10l-45 49q147 232 305 232h90q315 -100 315 -515l13 -243q0 -659 -305 -660q-139 20 -283 86l-68 -24q-328 78 -327 243q-23 0 -35 172z M141 454q0 -123 136 -209v13q-100 156 -101 208h23l135 -135q18 0 80 160q-68 14 -68 35v12q0 23 101 62l12 110q-103 -74 -158 -74l-102 25q-35 -43 -58 -207zM424 282l23 -24h12l33 24h22v-24l-10 -13v-12q57 -37 113 -37h67q160 25 160 135v13q-51 0 -260 122 q-37 -6 -92 -122l-68 -50v-12zM539 1163h33q80 0 79 -86v-49q147 -57 148 -158q0 -49 -170 -86l-45 -172q129 0 270 -74h12v367q-25 342 -102 342h-22l-203 -60v-24zM741 446q0 178 70 178q236 301 338 776q-53 31 -53 78l26 19h60q109 0 166 -80v-27q0 -45 -97 -229 l312 -273q299 -139 372 -229v-27q-8 -27 -51 -26h-35q-305 0 -372 141q-199 272 -234 299q-41 0 -129 -211q-25 -35 -43 -35q111 -80 111 -106l10 -27l-70 -264v-35h9q209 137 208 352l9 9h16q113 -41 113 -142v-34q-47 -162 -355 -353l-8 -10v-8q14 -115 164 -115h27 q233 0 233 88q16 0 43 98l-8 9l8 61v72h8q84 -78 148 -328v-88q0 -66 -477 -88q-201 0 -250 150l-35 133l-27 -19h-86l-43 19v16q29 33 164 98l10 43l8 318h-8q-111 -166 -200 -230h-25z" />
<glyph unicode="&#x178;" horiz-adv-x="970" d="M23 1096v14q57 84 143 84h29q270 -90 270 -196v-58h14q203 205 215 393h-14l-86 -14q-57 23 -57 43v29q-1 35 114 55h70q125 0 201 -168q-35 -168 -314 -407l-14 -41l29 -84v-183l-15 -71l15 -84v-281q-23 -154 -72 -153h-43q-186 143 -186 280l100 -29l29 84v281 q0 236 -158 338q-66 111 -227 111zM223 1630v39q0 68 61 113h17v-8l-6 -27v-4h6q49 53 88 53h4q59 0 110 -59v-17l-38 -123q16 -4 16 -26q0 -23 -109 -27l-6 4q-61 0 -61 -30q0 -8 -21 -15q-45 0 -61 127zM305 1630q72 10 72 80l-72 -45v-4l6 -4v-4l-6 -19v-4zM569 1636v39 q0 68 61 113h17v-8l-6 -27v-4h6q49 53 88 53h4q59 0 111 -59v-17l-39 -122q16 -4 16 -27t-108 -27l-7 4q-61 0 -61 -30q0 -8 -21 -15q-45 0 -61 127zM651 1636q72 10 72 80l-72 -45v-4l6 -4v-4l-6 -19v-4z" />
<glyph unicode="&#x2c6;" horiz-adv-x="915" d="M127 1421q213 23 213 181l131 40v-8h25q336 -88 335 -245h-8l17 -41q-16 -37 -33 -41h-16q-51 0 -222 180l-82 49h-24q-41 -180 -180 -180q-127 0 -156 65z" />
<glyph unicode="&#x2dc;" horiz-adv-x="0" d="M229 1206v17q0 25 11 26h30l4 -4h5q-12 -16 -13 -33v-14q8 -33 39 -33q18 0 47 74q88 107 180 107q53 0 191 -91q49 -23 86 -22q68 0 145 113h9v-11q-106 -170 -209 -170q-49 0 -136 64q-61 31 -116 31h-2q-115 0 -152 -99q-18 -23 -37 -22h-6q-76 14 -76 67zM369 1171v9 q46 63 118 63h15q68 0 170 -84l43 -4h12q84 0 164 64h4v-2q-55 -86 -199 -125l-37 -7q-109 33 -127 68q-53 33 -98 35z" />
<glyph unicode="&#x2000;" horiz-adv-x="1002" />
<glyph unicode="&#x2001;" horiz-adv-x="2004" />
<glyph unicode="&#x2002;" horiz-adv-x="1002" />
<glyph unicode="&#x2003;" horiz-adv-x="2004" />
<glyph unicode="&#x2004;" horiz-adv-x="668" />
<glyph unicode="&#x2005;" horiz-adv-x="501" />
<glyph unicode="&#x2006;" horiz-adv-x="334" />
<glyph unicode="&#x2007;" horiz-adv-x="334" />
<glyph unicode="&#x2008;" horiz-adv-x="250" />
<glyph unicode="&#x2009;" horiz-adv-x="400" />
<glyph unicode="&#x200a;" horiz-adv-x="111" />
<glyph unicode="&#x2010;" horiz-adv-x="669" d="M16 436v84q0 29 56 29h479q55 0 55 -29v-84q0 -27 -55 -26h-481q-53 0 -54 26z" />
<glyph unicode="&#x2011;" horiz-adv-x="669" d="M16 436v84q0 29 56 29h479q55 0 55 -29v-84q0 -27 -55 -26h-481q-53 0 -54 26z" />
<glyph unicode="&#x2012;" horiz-adv-x="669" d="M16 436v84q0 29 56 29h479q55 0 55 -29v-84q0 -27 -55 -26h-481q-53 0 -54 26z" />
<glyph unicode="&#x2013;" horiz-adv-x="921" d="M-14 502v215h936v-215h-936z" />
<glyph unicode="&#x2014;" horiz-adv-x="1843" d="M-14 502v215h1857v-215h-1857z" />
<glyph unicode="&#x2018;" horiz-adv-x="495" d="M57 932q45 315 242 536l18 7q-12 -51 -18 -116t-6 -114q0 -76 2 -100.5t6 -34.5l80 -61q19 -13 72 -68q-45 -49 -88 -82q-127 -100 -154 -100q-16 0 -37 14q-6 4 -46 39t-54.5 52.5t-16.5 27.5z" />
<glyph unicode="&#x2019;" horiz-adv-x="495" d="M57 1292q45 49 88 82q127 100 154 101q16 0 37 -15q6 -4 46 -39t54.5 -52t16.5 -28q-45 -315 -242 -536l-18 -6q12 51 18 115.5t6 113.5q0 76 -2 100.5t-6 34.5l-80 62q-19 12 -72 67z" />
<glyph unicode="&#x201a;" horiz-adv-x="573" d="M137 -145q66 55 80 77q23 37 23 74q0 35 -21 68t-82 84l148 147l147 -137q-55 -244 -270 -348z" />
<glyph unicode="&#x201c;" horiz-adv-x="761" d="M80 1311v84q0 236 289 299q47 -8 47 -43v-15l-289 -354h-25zM424 1346v71q0 197 242 250q39 -6 39 -35v-14l-242 -297h-21z" />
<glyph unicode="&#x201d;" horiz-adv-x="761" d="M80 1618v14q0 29 39 35q242 -53 241 -250v-71l-18 -25h-20zM369 1636v15q0 35 47 43q289 -63 289 -299v-84l-23 -29h-25z" />
<glyph unicode="&#x201e;" horiz-adv-x="917" d="M137 -145q66 55 80 77q23 37 23 74q0 35 -21 68t-82 84l148 147l147 -137q-55 -244 -270 -348zM535 -145q68 55 79 77q25 37 25 74q0 35 -20.5 68t-83.5 84l149 147l145 -137q-53 -244 -270 -348z" />
<glyph unicode="&#x2022;" horiz-adv-x="866" d="M129 662v81q0 141 133 234h37v-16l-14 -56v-8h14q106 111 190 111h11q129 0 239 -123v-35l-84 -256q35 -8 35 -55t-235 -56l-15 9q-133 0 -133 -64q0 -18 -45 -31q-98 0 -133 265zM307 662q156 23 156 165l-156 -92v-10l15 -8v-8l-15 -39v-8z" />
<glyph unicode="&#x2026;" horiz-adv-x="1218" d="M82 100v39q0 68 61 113h17v-8l-6 -27v-4h6q49 53 88 53h4q59 0 110 -59v-17l-38 -122q16 -4 16 -27t-109 -27l-6 4q-61 0 -61 -30q0 -8 -21 -15q-45 0 -61 127zM164 100q72 10 72 80l-72 -45v-4l6 -4v-4l-6 -19v-4zM453 102v39q0 68 61 113h16v-8l-6 -27v-4h6 q49 53 88 53h5q59 0 110 -59v-16l-39 -123q16 -4 17 -27q0 -23 -109 -27l-6 4q-61 0 -61 -30q0 -8 -21 -15q-45 0 -61 127zM535 102q72 10 71 80l-71 -45v-4l6 -4v-4l-6 -19v-4zM842 111v39q0 68 61 112h17v-8l-7 -27v-4h7q49 53 88 53h4q59 0 110 -59v-16l-39 -123 q16 -4 17 -27q0 -23 -109 -26l-6 4q-61 0 -61 -31q0 -8 -21 -14q-45 0 -61 127zM924 111q72 10 71 79l-71 -45v-4l6 -4v-4l-6 -18v-4z" />
<glyph unicode="&#x202f;" horiz-adv-x="400" />
<glyph unicode="&#x2039;" horiz-adv-x="468" d="M76 569q0 301 289 510l26 -28q-84 -88 -128 -214t-44 -266q0 -141 44 -267t128 -214l-26 -31q-147 106 -218 237.5t-71 272.5z" />
<glyph unicode="&#x203a;" horiz-adv-x="468" d="M78 90q84 88 128 214t44 267q0 139 -43 265.5t-129 214.5l28 28q287 -209 287 -510q0 -141 -70.5 -272t-216.5 -238z" />
<glyph unicode="&#x205f;" horiz-adv-x="501" />
<glyph unicode="&#x2122;" horiz-adv-x="1400" d="M41 1358v10q0 29 98 98q215 109 260 174v29v57l27 13q170 0 211 -64l12 -28q0 -29 -71 -86l-287 -136q53 -94 63 -194l2 -82l-2 -113l-8 -293q0 -16 -33 -28q-66 37 -104 149q20 174 10 471l-14 11q0 -31 -92 -97h-13q-23 0 -59 109zM420 1352v4l10 10q51 0 96 -84h13 q86 184 139 184h16q37 -25 58 -80l-4 -24v-41q31 37 53 100h16l10 -24q-106 -283 -139 -326l-43 -10q-33 12 -33 51v29l39 159v27q-45 -66 -82 -197l-4 -34l4 -25h-4l10 -39v-16l-20 -19h-12q-102 70 -103 150v59l6 31q-6 51 -26 115zM807 1141v45q14 76 31 76h12l16 -35 l-12 -10v-15h6q59 8 258 184l21 -20v-10q-45 -74 -146 -180q-92 -137 -133 -170h-10q-14 0 -27 55q-16 23 -16 80zM823 1466l133 45q154 80 263 80q63 0 135 -125v-4q-66 -475 -123 -616q-41 -53 -66 -60q-137 70 -209 195l-16 41l16 4q104 -70 166 -74q35 0 92 404l5 106 l6 19l-6 6h-5q-53 0 -208 -96l-50 -15h-10q-123 27 -123 90z" />
<glyph unicode="&#x25fc;" horiz-adv-x="1781" d="M0 0v1782h1782v-1782h-1782z" />
</font>
</defs>
</svg>
